<mxfile host="app.diagrams.net" modified="2024-06-21T14:07:59.226Z" agent="Mozilla/5.0 (Windows NT 10.0; Win64; x64) AppleWebKit/537.36 (KHTML, like Gecko) Chrome/126.0.0.0 Safari/537.36" etag="_zTyiGYhT417Teq4Aw2j" version="24.6.0" type="github">
  <diagram name="第 1 页" id="9lTrAyYvJ4b7SjN_BanK">
    <mxGraphModel dx="1834" dy="788" grid="0" gridSize="10" guides="1" tooltips="1" connect="1" arrows="1" fold="1" page="0" pageScale="1" pageWidth="827" pageHeight="1169" background="none" math="0" shadow="0">
      <root>
        <mxCell id="0" />
        <mxCell id="1" parent="0" />
        <mxCell id="PttNPXMBNqtkQihDIfYs-9" style="edgeStyle=none;curved=0;rounded=1;orthogonalLoop=1;jettySize=auto;html=1;entryX=0.5;entryY=0;entryDx=0;entryDy=0;fontSize=12;dashed=1;strokeColor=#524d84;endArrow=classic;endFill=1;" edge="1" parent="1" source="FY6Npwd8T1jpSmkpjrEg-1" target="FY6Npwd8T1jpSmkpjrEg-2">
          <mxGeometry relative="1" as="geometry" />
        </mxCell>
        <mxCell id="FY6Npwd8T1jpSmkpjrEg-1" value="&lt;div style=&quot;line-height: 1.3; font-family: &amp;quot;Chiron Sans HK Pro&amp;quot;; vertical-align: middle; color: rgb(82, 77, 132); font-size: 18px; font-weight: bold;&quot;&gt;&lt;p&gt;&lt;span style=&quot;background-image: initial; background-position: initial; background-size: initial; background-repeat: initial; background-attachment: initial; background-origin: initial; background-clip: initial;&quot;&gt;输入提示词&lt;/span&gt;&lt;/p&gt;&lt;/div&gt;" style="rounded=1;whiteSpace=wrap;html=1;fillColor=#f7f4ff;strokeColor=#524d83;fontColor=#333333;dashed=1;" parent="1" vertex="1">
          <mxGeometry x="343.5" y="160" width="121.5" height="50" as="geometry" />
        </mxCell>
        <mxCell id="PttNPXMBNqtkQihDIfYs-2" value="" style="edgeStyle=none;curved=0;rounded=1;orthogonalLoop=1;jettySize=auto;html=1;fontSize=12;startSize=8;endSize=8;dashed=1;strokeColor=#524d84;align=center;verticalAlign=middle;fontFamily=Helvetica;fontColor=default;labelBackgroundColor=default;endArrow=classic;endFill=1;" edge="1" parent="1" source="FY6Npwd8T1jpSmkpjrEg-2" target="PttNPXMBNqtkQihDIfYs-1">
          <mxGeometry relative="1" as="geometry" />
        </mxCell>
        <mxCell id="FY6Npwd8T1jpSmkpjrEg-2" value="&lt;div style=&quot;line-height: 1.3; font-family: &amp;quot;Chiron Sans HK Pro&amp;quot;; vertical-align: middle; font-size: 17px;&quot;&gt;&lt;p style=&quot;font-size: 17px;&quot;&gt;1.将中文转为英文&lt;/p&gt;&lt;/div&gt;" style="rounded=1;whiteSpace=wrap;html=1;fillColor=#d6d5fd;strokeColor=none;arcSize=50;fontColor=#524d83;fontStyle=1;fontSize=17;" parent="1" vertex="1">
          <mxGeometry x="309.25" y="249" width="190" height="60" as="geometry" />
        </mxCell>
        <mxCell id="PttNPXMBNqtkQihDIfYs-1" value="&lt;div style=&quot;line-height: 1.3; font-family: &amp;quot;Chiron Sans HK Pro&amp;quot;; vertical-align: middle; color: rgb(82, 77, 132); font-size: 18px; font-weight: bold;&quot;&gt;&lt;div style=&quot;line-height: 1.3; vertical-align: middle;&quot;&gt;&lt;p&gt;2.优化Prompt&lt;/p&gt;&lt;/div&gt;&lt;/div&gt;" style="rounded=1;whiteSpace=wrap;html=1;fillColor=#d6d5fd;strokeColor=none;arcSize=50;align=center;verticalAlign=middle;fontFamily=Helvetica;fontSize=17;fontColor=#524d83;fontStyle=1;" vertex="1" parent="1">
          <mxGeometry x="313" y="340" width="180" height="52" as="geometry" />
        </mxCell>
        <mxCell id="PttNPXMBNqtkQihDIfYs-11" value="" style="shape=image;verticalLabelPosition=bottom;labelBackgroundColor=default;verticalAlign=top;aspect=fixed;imageAspect=0;image=data:image/png,iVBORw0KGgoAAAANSUhEUgAAAsMAAAHGCAIAAAAeyxE7AAAgAElEQVR4Aey911Mbzd7v+9SuOtfnPzi1L/bFuXvP3anadcpee73vs9d61noEtkSwsQzGRGOMjW1swMYYkEDknMFkEDnnnHMWOWdEFCCSkDTnEW0Pw0gEGwlG8FN12a2enu5ff7qH/qrT/BadP1DTtdAztjo8s/ngY+F/+59BFp41i2u7iSXDLt/aPwY3tQ4s24c2u8V3JBQPJxQPz/J3ylpnQ7P6t4SH9qHN/+1/BpFcbOEQ9uOzsSH44aXu/2phJHXxXZdld7CaNje3pFIpAry/vy8gfIjUz7m0t7c3OztPjHwX/DfYVG4q640Nwc6OcHd3b29vf3//4ODg8PBQJBKJjo4/YrFYcvyRyn3uQnuAMl4Dgd/+X6O0/3yV8//op/yf/xWOa4L/oRX/P7Ti0df/60Es8dL/rZuIwu+/yCKGo8BX3rVEo2/quSLacKFfLYy8sBS3PsIdrCaBYGt9fQN1Dvs//9nb21tf3xAItm592yAV8Aabyk1lvbEhEAp3cSVxeCgCJUFqFfBVpQR+w9XD1T0kGYFh2E09Vz+FTC2M/KkS3crId7Oa1tbWZ2fnp6dnl5b4GxsC3E1Pz+LurEuzs/N3UEbc7J+dm2qluJLY3z/Y3z8AJXEr/wZSuVDKURL//WEccVIDL/BNPVe4AZfxqIWRlynI7Y4D1XS761eJpbvBpnJTWW9sCHZ393Z394hKAk1tHB0dweyGElsXJKWQwK8rif/j/wv+7w/jGHZFCjUEyuymniuFRT0rUC2MPMv4uxMO1XR36vqKJb3BpnJTWROVBFokcXj4fZHE0dERWiQhkUhIyySuyBluBwI4gd9wH3iAABAAAkBA7QiIxZLNzS18kcRZyy1BSahdzaqRwaAk1KiywFQgAASAAJnA/v7B1tY2KAkyF/h+jQRASVwjbMgKCAABIKBsAgLB9s6ObOMGcZGE/BZQGJNQNnhI74QAKIkTFuADAkAACKgXgd3dPfkBCeIiCVhuqV4VqqbWgpJQ04oDs4EAELjrBHZ39wQC2QoJfECCtEjinOWW+KFndx0ilF8ZBEBJKIMipAEEgAAQuC4CYrFkf/9AINgWCLaIB1LhuzZgauO6qgLy+U7gN/ysG/AAASAABIAA9Qlsbm4JBFvb20KijCAcko0fJAEnSUBPf00EfhPABwgAASAABG6UwNbZn+0fn52dHaFQuHP8EQp3cRlBfNeGwkOy5ddawtQGBh+lEvjtRyuF/4EAEAACQIAqBJBikP9XKPsokBE/VkgoGJAAJaHUThMSU0Dgt7OlMFwBAkAACAAB1RK4ULkcSwf8H5mGEAp39/b2kUOTGriMwFdIwFpLBd0dBKmMwG/ymhdCgAAQAAJA4AYJ4MKB4Pk+DoFOoEIy4uDgELnjSY0jhTICBiRU1ntCwicEftuFDxAAAkAACFCXgGyTJ+5IQxEKRyPwMyQUyghYJHHSAYJPSQRASVD37wdYBgSAwJ0kcKIbiAICHWGJ/sVHI0SiI+RO1kcQXtmlUEkoqe+AZIDACYHf8Pk28AABIAAEgAClCBDVA0lD/JjRODWpQVweoVBGwIDESe8HPuURACXxfeESpf58gDFAAAjcKQLyioEUgq+HODwUETTEKRlBnNQAGaG8XhJSupjAb/goGXiAABAAAkCAUgSQbiD+i09nHHtE+KQGSUaAkri494MYyiMASuL74mdK/fkAY4AAELjFBIjK4PL+czQEyAjl9YmQ0q8Q+O3y7RhiAgEgAASAwLUROC0d0MpKEb7VU0z4SE5/pGd8fqWLgHuAwCUI/KaosX5fDAyXbpbAwPIRuNtB4GYbEuSu/gRkAoKgHE68pyWE7NsZKkJ6ie4AogCBXyTw29GRGBw1CdRNidvmTlxe+6rbt04j+zy6WfI/9WP+qR+j/TIV3I0TQHUhqw4LrqlDoXdib2m/gFhxbXPwiAGByxPAVz7IPCeSQc53eQ0B+zV+sXuE2y5N4De59gkBVCFQPy2eWJcZMzuz4uGW8fBPZ3DqQiA0qEAgEIrF4sEVcfs8VVoU2HELCMgLCBRy1lAEyIhL94YQ8dcJgJKg7t8WpCQGeNPq0n2CnUQChkxv/vIGKAnqPmBqZdlZAuKc6QxcW/x6/wB3AoHLEQAlQd0/J0hJvDQLIvZP4FcjAl7umaAkqPuAUdKycxSDwku4XDjLc7mOAGIBgSsR+E1h64RAKhCon5FklA0//NMFnPoSKGtfal+gQmsCG24VgbN0AzH8Sj0D3AwEfoYAKAnq/n2pn5HYuOSrbycKlj/808UtvAGUBHWfMbWyjKgSLvT/TC8AcYHAVQmAkqDu35KayaM/HwVDf6zWBB69SAAlQd1njKqWXSgUzolw1T4B7gcCP0/gt3NaJFy6WQLpLWu0x8F0mgs49SXwJzOicfLwZhvS3cl9eXmT5HZ29kjFJ0VYXt4kRdjZ2SPFuTDChbnIR/iFXEhmSKVSkp1C4T6pC+DzBUQnH0Eo3CdG4PMFpBTkI8gnQkrhwgiXyYVkBoZhP5uLvBnyZSHlIh9BPhHcDNK9d/wrKAn5x5MqISF5E+crCQf7+KjwUlfn1LM6WjeX1Kjwkk+2sQojPH/q4+uVHRJYYGURqjACBF6dwJ/MiOJeAVWa1C21Y2J8ycE+XmFl9fdOkQpNiuZgH0+KIJ8UKUJKUg0pEVIu/b1TpAgpSTWkREi5yJshnwsphdO5sOg0Fq9vmtSf0WmycNxxk2tJERzsE/CryEOKwE2uJUUg5cLrmyZFkM+FFMHBPoGUy4VmyOdCMgPDMFIu8maQcpE342cL62CfIG8GqWh35CsoCdLjSaGv5ygJpq5HT/cEbuvC/Jrt+2/EP16fbeOIP7Y62sceMdyIEcJDivDbpVJpXk4L8Sr4lUUAlASxmanO72Afn5JU0987RXLyOZIikESAVCq9MIJ8nBvMhdc3jTv5Tgu/hHtIcfBw3EOKgGEYfgl5Lowg37mSUviFCNdjxuVz4SbXcpNr5bWIPJw7EgJKQv6PAFVCokpnzhqTqKroJVk5NbVM7Pzm59ZIEUqLO/EIb60iSFelUmmgXx4eATzKIvAnM6JqaEeeNoQAgV8mcEc6JyimGhEAJfHLj7PKb8xoXVeoJHQeuio8XN/+Qwzq/xw/J8gbd3AgwnvH1ORa+QidHWN4BPAoi8CfzIiakV152hACBC5PQI16FDD1bhL47W4WWy1Kndm2QXscQpr8o9NYZkaBCu335GSiyH7eOQojGDJ9UYTy0m75CDPTK/J5QcgVCfzJjKwd3ZOnDSFXJCA/Qn7FBOF2IHBFApMTy1dMQX1vByVB3bo7S0nQaSz+8qa83ebGQajbs7IIk786P7eGd4qhQYXyEcpKuvAI4FEWAVAS8i1NKSF0Gkt+SZ1SUoZEgMAvEECrNX/hxttxCygJitbjyi4W2yj417M4TW1/eecXXr2yixFdekEfMVpO6SDx6sou5hVUQYzQNbxKjLC0LbF4m0iMAH6lEPjDKCmPt7+yS9Fmpr5mgZJQ37q7lZaj3SXyG1xvZWHlCwVKQp4JJUJWdrH/iJaCux0EQEko96Hi8wUKNz0qNxdIDQhcngBSEnd2ggOUxOWbyrXGRErirDEJ/Oey1pMg3K/Qw7gogsK7IFBZBP4wSvqPaCkoCeU+PJMTy6AklIsUUrs6ATqNBUri6hghBWUSwJWEsibsIZ0bIQBKQplPxY+0br2SGBme9/bIivtW8aPEiv8XiY4O9kXnONHhkeI7IVQFBEBJqAAqJHk1AqAkbqTjV3qmoCSu9hwovlso3Ffp3g2pRKo449OhXZ3jmemN9bW808Hfv/H5mxlpDRlpDVLpxamJxRKim59be2MZ/tIsZHxs8ehITLxETCw0qPDju2+fbeMd7BJI7rNtvN2HWC9OpkLbIFAVBLjJtfKna6siIwqmCbMbFKwUmUmgJJTeqd9IgqAkruEBKy7sKC3uJP0RPzgQoXCR6Od+l2dnNn36GJeSWHOh5Wi7Eze5TmHMsdFFPW3392+iLtQlTQ2Djp8SHT+fOAf7hGdPfOg01hvL8K+EcMfPiQG+eXh2oUGFunROd+fE6Mg8yY0MzzM02H+liUcGDxBQHQFQEqpje6WUQUncSMev9ExBSVzpMbjczSaGAXQaa2Z6hRi9vpbH1PV0+Zqyt3dIDL/Q7+UuO5fF2yPrwpg/lAT5ZRboxtGRhcdal1ISrS0jLKcU1teUJzoebCeuvp43ncZydUllOXEN9LyfPfFxcUxmOXFZX2VxUgnCJTSo8PwWe76SmBhfcnVOdXVOnZ1dvbCwEAEInEMAlMQ5cG7yEiiJ8/9EqstVUBLX8BRFhBbTaazM9EZiXpFhJXQaKy+7hRh4Gf/M9EpRQfv42OKFkZWlJFBGc7Orj7Xcw4KLHOzitTRdt7dkB5q9fxNlYx0dGVbi+DlxduaUVMIw7IpKIim+Gj1HaVzFwyoXEoAIQAARACVB0ZYASkJdtML5doKSuIYHrLlpiE5jEX9/i8WSFyZBDA32wsI6MkAkEi/Mr42PLRKHKKRS6ejIwvjYolQqXV3Z6u2Z7O2eXF3ZGhqcW146OfxNKpVub++Njizw+QLiMgVcSYgOj1ZXBDPTfHSMPcpR4ZiEVCrdEuyODM9vbgqJSWEYFhdT8YjBqavhOdjFaz9w3dmRvSL847uY92+i6mp4byzDP32M29wQosTXVrf4/M3Y6PLzm5+7a/rC/NpZhxw0Nw6ZPg98YRLU2z15DdUEWdxiAqAkKFq5SEn82zBeS5MNTn0J/NsYdoGq/BGbnuKbPPO3fhWB64bOjnHtB65sJ65IJOYvbybEVZkYBujS3XQZHKauZ0FeK1oFubqy9epFqKV5aFJC9WMtdwM979zsluKCDj1tj4zUBmR3W+so24mrS3d7xODo0jlsJ+7U5PdDkZGS8PHMdnFMQYnraXvgR9HLK4m52VV3drounaOn7aFLd/PzzlnhC1AuVRW9jxgcF8eUxYV1kpKwfR+zu3tQVNBuZRHGduIKjxWGj2e2uVHgYy3385UEQ4NtZhT40izkrFWfu7sHR0dildcQZHDbCYCSoGgNIyXRMoXtC8GpMYG6CdkJY3CehHIfM/ldoM5fkmUnTPTPoIySE2voNFZiXBWGYfm5rXraHl8/J0WFl0SGlTx74qOn7YHUAH95E62xYGiwOay0kMCCwYHZooJ2Oo2VndmEYdje3qHTl2SDJ95+XjkJsZVfPyfRaSw3lzTUMSMlQaexzI2DIsNK/Lxz6TSWLoMzOrKAYRhJSewKD6wtI/S03f19clMSa5wcZEklxVdjGMZf3mQ5cV+/DJ+dXT08PJJXEii7mKgyfT3v6speDMM628daW0b0tD3OVxJ0Gquqsre5cUi5/CE1hQRgF6hCLBB4kwRASdwOCQVKQhVPkbySKCnqpNNY0RGlGIaJRGJX51QtTfbI8Dz6WlfLw09WiIuppNNY6dx61IUjJREWXLS7e4BMJSoJDMM62seWljbQpfm5NQvTYHPjoJlpPoZhSEl4uGWsrW1jGHZ4eJSSVEunsTisNHklkZfTokvnhAQWIlmwvr791irS+Jk/mm1Z4QsaGwbX1raXFjds38cwNFhzs6vr69uvX4a/sQwfGZ4f4M2s8AWtLSP4EML42CJSEhYmwcghVYF/Zep60mms1pYRVVQBpClPAJSEPBMIuWECoCRASdxwE6Rw9vJKYmaa/9I0xMoiTCrFVlcEDA22uXGQWCzBCyEWS4aH5kqKOny9suk0FtpLicYkmLqexKMJSUoCpTA3u9rVMZ6e2qD/2ItOYyGNgq+TwHMZHVmg01hvrSLFYglxTEIkEru5pGlpspsahgZ4MwO8mdGReQe7eEOmzwBPNo7S0z1pbRlhZRFmYRqspcmm01gWJsGvX4aj9/damMq0Aukdv0hJmBgGJCfWpCTWJidUGxv4P2JwkuKrUxJrUxJr3dnpoCTwqrkGDyiJa4AMWfwcAVASoCR+rsXcpdjySgLDsLdWkWZGgRPjS0gKxEaXo1//ItFRVUXvx3cxetoej7Xc31pFkpSEkYEfPiCBYRhJSczNrgb551tZhNFprI/vvqExjKHBWXxMgvhK0uGheS1NVxvr6L8OkyAqif39Q2MDfzqNxdCQqQSia28dxTBsgDcTGVZi+z6GTmNZmodGhpdEhBZHhBZHhslmZP7qovT1vAePNQdez0hJGBn4fbaNd/ycaGcT+4jBkRn5PgYdTYFshjEJnJiqPaAkVE0Y0v9pAqAkQEn8dKO5MzcoVBKJcVV0Gqu6stfbI0uX7oZ6aAzDcrKaGRrs92+iqqv65ufWhofmL68kDg9F9h/idB66BfrlDQ3Ozc+tvn4Z/tdiiLOUxNiobEzC2jIC7QrBz5M4PBQZG/gzNNiJcVVp3Hrcpac2zBHOcpidWbGxjtZ+4NrcOHR4KMIwbHV1y/pVhLlRUFaGbN0G8fNdSej7fbKNc/yUaGcTg5TEh7fRsnOuPiW+PlY/5ygJiUTa3DjU0jRM2kVCzAX8lycASuLyrCDmNREAJQFK4pqamhpmw+cLHOwTSAdmT0/x6TSWFyfz08e4Z0wftJ5AKNx3dkx+rOXe3zeNCsrrn7m8kqiv5aHIaKJEKNxH3fMpJZF0cjJVTlYzncb68kl2siRxTOLoSBzgm8fQYOM7O86iPjw0Z2MdrfPQjcNKS0ups7IIMzcKKinqlI8/OrJQUtRRWd6DXEVZt/Ezf10Gp6KsGw8sK+nq6hyXvxeFlBR16jx006W7VZT3nBUHwi9PwME+4awNt5dPRE1jwt4NilYcKAlQEhRtmlQ1i88XfHz3DU0cRIXLll7+NeWxvb33/k3UIwanurJPINitruxDgwrEdRLnzG6UlXahzRoL8+tzs6vhIbIjsEhjEjbW0Y0Ng9vbe/W1PAuTYH09b3SqFVISL81CBJuyQyDa20a1H7i+sYxobBgUCvd3hQd52S0dbbKpDeJHIBA2Nw0ZHB9zifLKy2nhL58cboFHrqnqe8b0MXji/d39uEVf70fI8aXQoEL8FpIH6R46jZWb3Uy6BF+BwE8RACXxU7iuLzIoCVAS19fabktOPp6y1ZQMDXZL8zBeJm6ybD8FQ4OtpelqaRbyyjz08mMSGxs7L0yC0e26DI6leaiZUSBJSTx97PX0kRdDg83QYOtpe+AiZmlp441lBJ3G+mQbj2GYVCrNTGt8rO2OLGFoyPaOurnIdnmsrmy1No9kZzaFBBY42CcwNNjGz/xdnVM9ORlMXU8tTdc3luGBfvlp3Pqaqr7F47O2WptHKsp6cjKbic7s+IQJYkhOZnNRfnvPGQdPCXf283Ja87JbdrZl52nCBwj8MgFQEr+MTrU3gpIAJaHaFnYbU29rHXVySOaw0ra2dvHy7e8fVpb3hIcUR0eU1tcNzM6s+Hhmoxd0bQl2gwMK3FhpB/uyRQnoU1vd7+SQVFr8fUJhanI5KaE6NKgwnVs/OrKQxq338cxGL6poahjy8cxubx0tLe4MDymOiSprbT615bKrczzIPz8ksOBH2lh/33RKUm2gX35sdHlFWTeaNMlIa9DT8dDX89aluznYJ6Sn1g8OzKLlorIcU+o4rDTZclFt9yc6Hg72CULh/qsXMk1DdMdHb3G0H7gaG/gRw9HJVBLJyTYW3BjwAAFlEQAloSySSk4HlAQoCSU3qbuRnEh0JFH0TvBTO0KPxKifxjAMvbCbxEYkEpNe4Cn+cRCkVIrhJzpg2IlfYaYYhsnOz5az50hmwEme6+vb2ZlN7a2jItER0U48hkQiOTgQ9XRNFOS1odO3WltGGusHL+lamk5GaPA0wQMElEgAlIQSYSozKVASoCSU2Z4gLSAABICAygiAklAZ2qslDEoClMTVWtBtvlvh3o3bXGAomzoQ4CbXwt4Ndaiou2QjKAlQEnepvf9cWRWeJ/FzSUBsIKBsAnCehLKJQnpXJgBKApTElRvRrU0AlMStrVp1LhgoCXWuvVtq+7UpicVV7C47VesVeIOXKh5QUBKqoAppXpEAKIkrAoTblU/g2pRE2YA0t+eOusZRlb+vHJSE8p8NDAMloQqqkOYVCYCSuCJAuF35BEBJXIO+ASWh/IZ7LSmCkrgWzJDJzxEAJfFzvCD2NRAAJQFK4hqa2W3KQiqVEk96uE1Fg7IAAYoTgF2gFK0gUBKgJCjaNKlqVn3dwEuzkIHjV2+PjSwUF3aUFneSXHFhx9Tk8i+XQCqVVlf27goPMAzb3NgZHJjt651S6CbGl345F7gRCKgdAVASFK0yiiiJnG7JNfToN5UFzG5QtPX/kllNDYN0Ggu9Y6KhbuCvt2Po0jn6et6402Vw6DRWU8MQnryfd86715Hnu0C/PDx+YX77G8twDjtte3tvZnpF+4Eret0G6V86jfXGMhy/CzxA4NYTACVB0Sq+TiURmLvEsC72SJ0h9ehhRas678s+hw+SwvGvWZ1HRJfbc57s+Bozov2uLLZ6K7dHGla06pE648GdlndxNdt4+j/ryemWeGfMZXfJzEhp3IssXY8oUezia3Zye6SgJCja+n/JLJKS0NJkJyfWtDYP4y6NW8fQYBOVhLdH1mMt9/Odn3cO0ZzIsBILk+B3VpF8viAnsykro5HkMtMaLEyDP7yNJt4FfiBwuwmAkqBo/V6bkijtl7jEjf1NPy0wb5koBZIbdjVfFd5jcl9yWpPqhfKdemDe0uOPFUy7KtwZOTXIR8NDWPHj95jciNL13B4pO2HiHpP7vwzS/tMwA3d/e5p6j8kNzFvCbzFlNTHtq85zdlVvfLvw+B+C+uhvii092rK7xGFFK/eZqWc5PdtKUBIUbfo/b1Zjw2BMVHlIYAGdxgoLLoqJKisu7KDTWNoP3Z7oeuJO56EbaUxiYX59bHTxfIfevUk0Kja64q83lQ8PzVVV9BYVtJ92HW0tI3Y2saAkiMTAf+sJgJKgaBVfj5IY5i0Zfa7Ueltyj8nV/VBu4FBj5dmR2yONqRRoWBZoWha+cGu5x+TqO9Qk1Mp+xBOdf84i/U0xchovC/6mn2bGbiZGIPlPKYnEiftPU+3DBjzTZnBnE9h7j8kNyD1REs++1P4vg7Rz3N+fZVh6tuEZZXeJjZwaNF4WGDrWfavctAnqfeffTXJvfLt+N8oycKgBJUHRpn8Js4TCfW5yLa9vGsXNzW7WpXO0NF1l6uH4ZZg5mc1amuys9MbBgVnc5eW0MDROzW5cIquTKIeHR2hF5/7+4fiYbBmEnU2MgZ430T1/6puf22pnEwNK4gTcnfHx+qaFwv07U9xTBQUlcQoHdb5cj5IYH1k1sC29z+T+wzjriW3lE9uqjyH9X6KG/3yR94dZrk/mXHLDnl1I//2nqf8wzbb27U5rOcC7baInuWHvd6MsE+fGzI4jYjjye6XP2ob0v3Rvu8fkfg4ftAvlOcWM3mNy/9Mw4x8m2bj7+7N0kpKIKlsPLuCf40IKV2KqBMQcs7sk5q4tujZl4cVrnJQpduIE0bkmTfrnLD54VQhKgjpN/RcsIe0CnZ1d7eudKi/totNYrc3DvL7pxoZBhgb7k22ct0cW7j7bxuNjEoMDsy6OKfil8z1sJy6vbzovuwWPhqY8xscWe7snia6vd2pyYhmUxC/U6S24BXaB3oJKvG1FuB4lsS/EMpqFf3+W/syx1itt1id9zuhr/X0m9x6Tq/2uzJTVaMpqNHZu/Jt+2j0m938bZRk7NxK7bdz/Mbjv78/SNV7mc5v38UDc8z6w92/6afeZssmLv+mn0SzyHSKH7jNTHaOHA3KXcPcxpP8+M5U4JoGncBkPvjiU27wfXMDP7ZHSXxf9YZ5LdH++yHOKHX1gBUpCvZ8XkpJAhSGuk+jtmeKw0py+JJOct0cWeit3X++UIdOXqetJdGhJpi6DQwxk6nrq63mjN3pbmoe8NAthaLA57DQMw6RS6fjY4tjoAu7WVrfRWAWMSah3C/sl60FJ/BI2uEmVBK5NScSWrdxjcjVfFf6nYYZX+tzXmBGboF4TViNpdYJNUO+X6GH5OY7cHmlW55HGy/x7TO59JjepYVe+148oXffLWrAPG7jH5PrnLPpnL7ITZGsmDBxqLTitP1wL074KH5MIzFs2YTX+uITHUewxcW6MKtuwC+nH438I7svtkQbmLftmzp9yWQshhSugJFTZcq8j7XOURHVlX0pSbWhQYVhwkUIX4Js3ODCLYZhYLBGLJUuLG3Ozq3u7B2KxpKignaHBrijvEYslBwei+bm15aVNFE16/Dk6Eq+v75gY+iMlscIXmBgGPH/qa2ES/MI4iKnrmcatByVxHS2AknmAkqBktdxto65NSXzwbXv4uuhL9PB9Zqpn2kxk6boFp9XKswO5F24tATmLXmmzH4L7/m2eq3Dywj97EQ1a3GNy2Qnj8koChRDXSXinzz3+WKH9rozkDB3rIkpkSzK9M+Z+N8wgrZD4PqrxlLxy4j8NM8KKVt759/xhlvtP05x7TK6lx/fFE3E123E1W7jLaBdld0lASaj7s0VSEjs7+63NI8EBshWXdBqLocF+YRL8RMfDyiLMyiIMbdF8fey3sgizs4nt/7HAAsOwyvIeD9f0xoZBDMNys1voNFZxYQeGYZ3tYz4eWTPTfBIr0eHRC5NgpCSWljZ06W7OjskNdQMVZT0GT7zTUupASZCI3Z2voCTuTl2rTUmvR0lMjK7pvM7/u0G6lrVs0SXDutjKq+Ofpjm/G2U9eFX4X4YZ2u9Kn32p/Zd57ueIwb8/S89sV7AM4kNQ3z0m14LT+g/jM6c/cnukSEmEFK58jhy09u229u1S6Kw826PK1rO7JJntR2lth7E1W98qBaktB2lth3ahvPvMVJ/MubS2Q27z/rdKQXzNdlrbIdIH2V3itLbDmErB788zkZKIqtj8l3muhmXBw9dFD6wK/zDLcYoZBSWhNr1GFZYAACAASURBVM/A2YaSlER0ZNkTXU8kI8JDivt6pzY3habPAxLjqra2dl+ahnyyjVtd2eLzBXy+QLApxBNeXtp8YRL80ixkbnaVpCTqa3kMDZaDXfz6mmzCAv/IKwlfr2ypVLqzs29qGABKAgd1Bz2gJO5gpVO9yNejJKbG13WtC/5lnvu7UdY9Jvd3o0wzdtO/zHNfuLU4x44ZOdVrvyszcW78wzz3Y0i/QiWR1nbIsC7+m35aSOGKxsv8Py3y5WdA0ttFgXlLlh6yFZdoXOEP05y/PU3994u8f7/IQ4HI/+8XeVrWJWFFK/jAhnPcqAWn1T9nMbdHahMk29zhnjKNZi4sOK3JjXt4TORJazn4h0k2UhKRpev3mVwTViM7YcLx28jvhhmO30ZASVC96V/CPqFwH9+4gWFYfS0v0C8/J7MZP5lKIBDq0jmhQYVSKWZlEWZuHMRNrk1NrktNrkNTGyiTsuNFmj4eWegrcUxid/cgyD+fTmNlZzYRLSIqCT5foEt383TLmJpc7uudesb0ASVBZHXX/LB3467VuBqU93qUxL4QS67dTKwTcpKn7jNTfTPnI0rX/2ma8zf9tN+Nsu4zU7XflZ6vJNDaSVNWU0rjnkPkEBqcON27yzZT/G6Yce94IacFpzUwbym5YfefptkOkYPJDXv/MM02dKxLrBfGVG3FVG0l1J1sN42p3vqnaQ79TXHy8fILopL4HDF4n8k1dmogrfGUVxLowInEOuE/TLJBSahB0/9VE4krLmuq+3Tpbknx1WurW1YWYXQaS0/b47G2+2Nt97KSLpTD7MyKwRNvK4uwFb4AhRCVBIZhfL7g1YtQ42f+aMQCxUFK4uvnpKz0xpzM5kcMdzQWgv4FJfGrtQf3qTcB2AVK0fq7NiVRNiBNqN1BSkLfocbcteXfL/I+BPVFlW++dG/VeX/emERK4572u7K/P0sPPR5FiKvZ+sMsV/NVIRpCwPXE5/BBI6eGd/4995jcyOOTqRLqhPeZ3Hf+Pdld4n+Z5+ralDlEDiFH3NX5JUomTV5yWlFSRCXBbdoz+lqPD1HgeRGVRGz11n0m941vV0z1Vkjhyu/PM0FJULS5K8MsXEmIxRI/7xykHmZnVy3NQ+w/xC4urI+PLY6PLaLZCv7ypoOdbFMocciBpCQwDEvn1tNprIS4KtzAmekVE8MApBtcXVJ16W7v30QlxVcnxVcnJ9SgAzRhFyiOCzx3hAAoCYpW9PUoiab6seefK3Q/lKMBgz8t8o2dG/9hkq1lXaL/qZr+uvicMYm01gM928p7TO5bv268I/dKn/unaY6GZQE6jhoPx9dJoDMuXeLG7jNTv0QNJzfs/ss8Vzax8jwTOd/MeXRXTKXgfxtnab4qxKcwiEoit0caWbr+D5MsxpvixLqTIziRkrDgtDpEDjrFjv5YpJmKDtAEJUHR5q4Ms5oahug0Vm/P5PDQ/CMGh8NKs7OJtbOJNWT62n+I3d7eI2bCTao1NwoMCSwU7pwcJVRU0I6vuESRl5c3jQ38rSzCDg5EKAS90ePZE5+UxJqVFQGHnZaaUieVSjEMOzoSi8WSzY0dG+so2AVKpA3+W08AlARFq/h6lMTY8MqDF9na78qMnBruMbmc5Clu8/6fL/JeuLU4xY4+/ypbJ2HoWCdbcRl5asVlVsfR00/V95hcPdtKYkee2yN969d9j8l98Kowpkr2ig3c4Xs3srvEz51kwwl/WuTHHg9jGDjURpVvoBOo0ERGQt3OE7uq+0yuQ+QQngJJSeT2SK28Ou4xuY7fhvE4URWbaM3HPSbX2Lnh/tNUnfdllp5tlp5tr707fDMXYJ0ERVv8FcwaHpp3/JT42Tb+iY5He9vop49xluahg7yZ/r7pj+9idOkchgbbjZXmxclE7ltkmUQi6emeFAhkqy9bm0fcXdO9OJn2H2K1H7hWV/YRbSkp6pycOHmxp4dr+nN937bWUWIc5E9LqfNwy+Cw0xkaLJYTVz4ChACB20oAlARFa/Z6lMS+ECvoFslehJE4cZ+ZykmeSm87pFnk24XycnskLzmy2Y2g/OXj0yB4+IrLsKJVfYeae0yuzvuyqPJNvBdHHm7Tnhm7+R6TS7PI90ydwQ+Mcjl+70ZU+UZo0crfDdKMnRvQxpDfDTMMHetI+0vf+nX/YZZj5dWR0S4zD7mPIf2k6YyI0vX/MsxgWJfgcdiJsjd6/P480yaoN7Z669GH8uM3kMne6ZXZfpTdJUlu2NWwLIAzLina7i9nFmnF5a7wwMkh6fXL8LhvFcND864uqTVV39XA3t5hfS0vOqKU7cTFN4LW1/GI+ayubj3X93v6yMvYwD/QL2/n9OgFMSaGYdNT/NHheVIg+trZMW76PODVi1B/79zhwTmFcSAQCNxKAqAkKFqt16YkygZk/TQ7YZyoJN75dxs7Nzz6UE5/XcxOnDBjN+nalNMs8rM6xe4p09rvSv+mn8a0rwovXsO7cKInsU74xqfzvwwz/jDLtQ/lBeQuGTnVP/5Q8Z+GGeHFa48+VDx4VRhRuu6ZOqP5qvA+M/W/DDPM2E0Wbi3IfQzpz2w/QgMkuT1St6RJM9dmC7eWJ7aV/8sgzSd9jpiXTVBvWNEqCsnuEus71PxhmuOZhr/X9OT1pDZBvS/cWkxZTX8zSDM5PqwT3gVK0dZ/kVmkXaDHx03KTpxE94lER6QEpFKpRCIViyVoAoJ0FZ1WeXQklki+pyAf4ZIhKIsfhlzyJoh2SwjALtBbUpG3qRjXrSQSJ343yvJMncloFz13qneKGX3j22XGbvZMnYmpFDyxrbTgtDpGyyYRMtuPnjvVW3q2oZd3Ezt1kt8tadLAoZbbtJdYL9R5X6bxsuCVZ3tg3hLTrgrt5MztkSbWCb9EDVscD378YZ77r2Pnny3b84m7b5WbfzdI/7tB2u9GmSYujWe9+wPFDylcIW4ixRM5ViRT/zDO+pd5rpFTAxIfoCTU9JGRVxJqWhAw+zYRACVxm2rzlpTlmpVETrfsJCg0E5HVKc7tkWZ3ibN+vI4rs+MI9x9fkhDfP07srUn+7C5ZUscnaoszO76nn9pygE95oKvZXeLM9qOMdtGx+x4NTyqnW5LVKbuKpifw8J/1ZHdJUBa4VaAk1PRpASWhphV3u80GJXG761ctS3fNSuJne+XbER+UhFo+GxgGSkJNK+52mw1K4nbXr1qWDpTENYgVUBJq+WyAklDTarvtZoOSuO01rIbluzYlsbiK3WW3L8RU6uomsP+Ilq7sqmETpLDJfL6Am1xLYQPBtLtIgJtcKxSeHE9ypxDA3g2KVve1KQmV9qOQOCgJij5gYBYQAALKIwBKQnkslZoSKInboUJASSj1sYDEgAAQoCIBUBJUrBUMw0BJgJKgaNMEs4AAEAACpwmAkjjNgzLfQEmAkqBMYwRDgAAQAALnEQAlcR6dG7wGSgKUxA02P8gaCAABIHB5AqAkLs/qWmOCkgAlca0NTq0yg/Mk1Kq67oqxDvYJfL7grpT2dDlBSZzmQZlvoCRASVCmMVLOEFASlKsSMAjD4DwJaAWUIwBKApQE5RolZQzi8wV0GovXN00Zi8CQu06A1zdNp7FgTOKutwOqlR+UBCgJqrVJStlDp7Ec7BMoZRIYc5cJcJNr6TTWnSUAsxsUrXpQEqAkKNo0qWGWg30CDEtQoyrAChkBOo11l89dBSVB0ccAlAQoCYo2TWqYBQdmU6MewIrvBLjJtXd2agPDMFASFH0SQEmAkqBo0wSzgAAQAAKnCYCSOM2DMt9ASYCSoExjVA9DeH3TJEeym3RV4YJNUhxSChiG/WwE+VxIKchHoGwuF9KQLwtFCns9ZsjzuTshoCQoWtegJEBJULRpUtUsOo1FdPLrMdGaOGIcUlHQ8ntiBPmukXhV4dQ4WsBBjEbKRd4MUi7yZshPwBPTV7j49EIz5HMhmYHm/okZyZtBykUpzOVzIdrwa4W9kLlSCkuq6Dv1FZQERasblAQoCYo2TQqbNTmxjDv5SWuhcB+/ijykoshHkH9JNCkF+Vz4fAEpzs/mIm+GfC6kLOQjXN0MDMN+Nhd5M+TLciEN+UR+1ozJieULc1FFzZIyvVNfQUlQtLpBSYCSoGjTBLOAABAAAqcJgJI4zYMy35CSaJvBbkeHemdL0TiN/Ue0dGWXMg0LDAECQAAIKJsAKAllE1VSekhJtC+AklBvAk1zoCSU9EhAMkAACFCVACgJitYMUhJdy9jBrnp3pXd2NGJfiIkOsJYFUBIUfcTALCAABJRFAJSEskgqOR1cSUjEoCTUk8AuJpWAklDycwHJAQEgQEECoCQoWCkyk3AlgWGYRIwd7qtnbyq8o2Yf7mNSqaweYUyCog8YmAUEgIDyCICSUB5LpaaElETDHIa7uhmsdhKrHseqx8BRlcC4rI7qZk5qrQHWSSj1uYDEgAAQoCABUBIUrBSZSUhJ/Ee0FNwtIAB7Nyj6mIFZQAAIKIMAKAllUFRBGiu7MjEB7tYQUEEbgSSBABAAApQgAEqCEtUARgABIAAEgAAQUFMCoCTUtOLAbCAABIAAEAAClCAASoIS1QBGAAEgAASAABBQUwKgJNS04sBsIAAEgAAQAAKUIABKghLVAEYAASAABIAAEFBTAqAk1LTiwGwgAASAABAAApQgAEqCEtUARgABIAAEgAAQUFMCoCTUtOLAbCAABIAAEAAClCAASoIS1QBGAAEgAASAABBQUwKgJNS04sBsIAAEgAAQAAKUIABKghLVAEYAASAABIAAEFBTAqAk1LTiwGwgAASAABAAApQgAEqCEtUARgABIAAEgAAQUFMCoCTUtOLAbCAABIAAEAAClCAASoIS1QBGAAEgAASAABBQUwKgJNS04sBsIAAEgAAQAAKUIABKghLVAEYAASAABIAAEFBTAqAk1LTiwGwgAASAABAAApQgAEqCEtUARgABIAAEgAAQUFMCoCTUtOLAbCAABIAAEAAClCAASoIS1QBGAAEgAASAABBQUwKgJNS04sBsIAAEgAAQAAKUIABKghLVAEYAASAABIAAEFBTAqAk1LTiwGwgAASAABAAApQgAEqCEtUARgABIAAEgAAQUFMCoCTUtOLAbCAABIAAEAAClCAASoIS1QBGAAEgAASAABBQUwKgJNS04sBsIAAEgAAQAAKUIABKghLVAEYAASAABIAAEFBTAqAk1LTiwGwgAASAABAAApQgAEqCEtUARgABIAAEgAAQUFMCoCTUtOLAbCAABIAAEAAClCAASoIS1QBGAAEgAASAABBQUwKgJNS04sBsIAAEgAAQAAKUIABKghLVAEYAASAABIAAEFBTAqAk1LTiwGwgAASAABAAApQgAEqCEtUARgABIAAEgAAQUFMCoCTUtOLAbCAABIAAEAAClCAASoIS1QBGAAEgAASAABBQUwKgJNS04sBsIAAEgAAQAAKUIABKghLVAEYAASAABIAAEFBTAqAk1LTiwGwgAASAABAAApQgAEqCEtUARgABIAAEgAAQUFMCoCTUtOLAbCAABIAAEAAClCAASoIS1QBGAAEgAASAABBQUwKgJNS04sBsIAAEgAAQAAKUIABKghLVAEYAASAABIAAEFBTAqAk1LTiwGwgAASAABAAApQgAEqCEtUARgABIAAEgAAQUFMCoCTUtOLAbCAABIAAEAAClCAASoIS1QBGAAEg8LMEJieWqyp6HewTSO5bZBkpqW+RZaQ4pAjy6UxOLBPjTE4sk1KoquglRsAwjBRB3gz5XEgpyOdCMkM+F3kzSIW9jBmkXOTNkM/lwsKSzHCwT6BIYS8045zCcpNrqyp6+XwBKRH4CkoC2gAQAAJqScDBPoFOY5G6NAf7BG5yLak83ORaUjRSBF7fNCkCr2+aGEc+gnwupBTkI8gnQswCwzD5CCQz5JWEfC6kwspHuDAX+QjyiVxYWJIZ8kpCPpfrKeyFzM8pLJ3GotNY8hFIad7Br6Ak7mClQ5GBABAAAkAACCiNACgJpaGEhIAAEAACQAAI3EECoCTuYKVDkYEAEAACQAAIKI0AKAmloYSEgAAQUCkBbnItTFGrlDAk/rMEHOwTYAEmhmGgJH625UB8IAAEboYAWuV3M3lDrkBAjgCvb5pOY5F2vsjFuhMBoCTuRDVDIYHALSAAy+ZvQSXesiLQaSz5XaO3rIyXKQ4oictQgjhAAAjcPAFQEjdfB2DBaQIKdx2fjnInvoGSuBPVDIUEAreAACiJW1CJt6wIoCRQhYKSuGUNG4oDBG4tAfirfWurVm0LBm0SVR0oCbVtwmA4EAACQAAIAAEKEAAlQYFKABOAABAAAkAACKgtAVASalt1YDgQAAJAAAgAAQoQACVBgUoAE4AAEAACQAAIqC0BUBJqW3VgOBAAAiomMDuzgucgFkvOcXg0okckOhoZnh/kzUilxGCyf252NSujsbry+2vKRYdHLU3DvP4ZFG91dWt2dnVLsIvfJpVKFVqCR8AwbHhwrrlpiHgX8Sr4gYByCYCSUC5P5aQmkWCHB9juLrazg21vS8GpL4GdHWxvFzs8xM7vS5TTbm57KtzkWvkXT6uu0IMDsx/fxZQUdWAYtriw/uljnPOXZIXOziZWYf2ur23b2cTqMjhDg3Pn2NnXO/WIwYmOKN3dPeDzBVtbu9oPXONjKtdWt1ZXtsJCinQeum1s7Eh/5BEaVOjkkCTvMtIaWpqHy0q6jo7EBXltdBprYX7tnHzh0tUJ8Pqmr7NNXt1gFaUASkJFYH862YMDbH1NOj8nHRuTDg5IwN0+AuNjkoV56ca69PDw3J+oP9127soNpPMk9vYOGxsGW5uH5csvPpI0Ngw2Nw1JJGTUUqm0sWGwsWFQ/pDj7q6JxobBzo5xlODc7KqFabCFSXBRQfv42KIbK+3r5yTnL8nPn/rSaayvn5Nw5+GaIZVKDw+PtgS7m5tC3PGXN1ubRx5ruTs5JG1u7ODhyHN4eIQy6uud0qW7RUeULi6us524DvYJdBrr2RMfthOX7cQ1fR5Ip7Ec7OJdXVL7+6YxDEvj1jt+TtR+4GpuFOjkkPTsic/TR15fPyeVlXSFhxQzdT2Fwv3CfJmSmJtdlYcDIUokALtAEUxQEkpsVL+SlFgsXV+TTk6AdLhbBKamJJsb5E7uVxrQXbqHpCSWljb09bxfmoUc7ItIGLa394yf+Rs+9d3Y2CFdEonEluYhDE22t0cW8ZJgU2hiGMDQZLs6p+LhM9Mrry3CzI0Cm5uGVle21la3ZqZXnuv7On5K3NzY2d8/nJnmb219n3fobB9nPvIkuaePveg01l9vZ9B/7EW6VF/LW1vb7umaKC/t1tJ0DfLPb6wfcP6S7OOZTaex3liG+3hm+3hmvzIPpdNYyD8xvoRsW1/fNtDzDvDNwzDs47tv1q8iDg9lECLDSh4x3Hd2LlAS+/uHEaHFHFZaT/ckXljw/AIBUBIIGiiJX2g8yrlFIsH4fOnQ4N3qQW/fSMNVSjQ6IllbBT1x2QdKXkno0t2MDfz39g5JSWxv7xnoeetpe6yvbZMuiURiC5NgOo1lbRmxuLiOX21qGERdvodrBh6IYdjY6II7O315aaMgr83fJ9eLk0mnsR4x3P28c/x9cn29cjzcvscf4M34eGazvqZc0nV2jFeW9+hpezzWcqfTWAwNtpama252S3PjEJ3GCgksQGMnXpxMhga7sWFwfGwRw7Dt7b3RkYW6Gp6etgfbiTs8OPf6ZbiFaXBz09DMNP+SSmJocI6hwabTWI6fEomFBf/PEgAlgYiBkvjZlqOc+IJN6dgozGKAipIRmBiX7OyAnrj4yVKukqDTWPgvcqlUGhJYQFQSKyuCrs6J2dmVAd4MmggvKmi3s4m1MJWpEEuzEDubWDubWIYG28I0GDddLJbs7R0O8GbaW0fPcgO8mb29w6MjMYZhE+NLFWU90RGlaLokJqo8Jrr8EYOjp+1u+jzw08e4T7ZxluYhOg/ddBmc2up+DMPqanimhgH6et7HgobzjOmj/cCVTmMZ6Hk7fUm+pJKYnV19axWp/dAtI60BNx48v0AAlASCBkriFxrPVW9ZXAQNARqCTIDPBzFxwZOldCXh65WNstzZ2X+i40FUEh3tY6bPA8yMAg2Zvhx2OoZhYrFkZ3svObGGTmMN8mYP9kVrq1tPH3vZf4gl2i2VSi3NQ1+9ONNZmofiayfRjd8iy5CS4PM3S4o6GBrsrIymmqo+3HGTa+k0FlIS01P8gry2sOAiOo0VHlKcl9NiaR5qbhSYl9NSXtp9SSWBYdjO9h5/eZNkCbEg4L8MAVASiBIoicu0FqXFORJh01MgI8id6FUmCG7TvbOzkh/L85XW5G5xQktLG788u/HhbfRri7AXJkFod0N1ZZ8u3U3/seyHPprdmJ1Z5SbXZqY3oj5+cmK5p2tigDdj/SpCS5M9NrrQ0zUxObGk89CNw04b4M1MT/Fx1DmZzec7PCYSKCaG/kjE5GW3FBd2oEUSDnYJyH22jUfTMUhJYBgmEom9OJm6dM7U5DKGYZ8+xr1/E4VaTnREKYeVtrd7gPZuwIpLImpV+Hl903y+QBUpq1eaoCSur74ODrDxMehEgcB5BKanpGLZsDd8LiZwFSXBduLGRlf81X/39U6JREd+XjnaD1zRfgfiOonpKb6WpuvXz0kerhkMDTZDQ7Z28nhNg2xZA+ErOyK0GFkslUpfvQj98Db6LPfqRRhxJKC9bVSX7oaSNTbwR1bl5bSiRRLo34zUBnxM4vDwKDykWPuBq49ntkQiQUri3esosVjmPzw8Sk2pS0mq9XKXredYWty4mCPEAAJXJgBK4soIL5fA4aEUZMRtGj9QXVmmp4gdzeWa152MdUUlMTqyQKexggMKVle2HjE4rs6yPZb4mAQiiiuJyvKenKwzRxpys1vqamSLGNAnL6clN7v5LJeX0/IjIiaVSv28c5CMCAspcrBPSE6QzZ68sQz/bBv/6WPcZ9v4z7bx5sZBuJJoahjSpbs52MUvLnxfLvrGMtzKIszGOrq5aUgqlX6LLGNosB8xOHY2Mdvbe3he4AECqiMASkJ1bE9SlkqxqUmY1Djvt7jqOmZ1THl2FtZMnDw+Z/muqCRW+ALb9zFG+n75ua3aD1zzc1s72sfOUhIYhlWUddt9iMXPkCB6Sos7iUbKDqA8OtsdDx6g+H29U3raHjoPZWMS3yLLWpqHBwdm62r66+sGSoo6deluzo7J9XUDyA0OzKLZkP6+6bXVLYlEKpVKJRLp2upWXnYLncbqaB+TSqXLS5vjY4sL82sCgZBoFfiBgOoIgJJQHduTlBcWQEaAjPg5AvxlEBMnT5BC3xWVBIZhSfHVDA3WIwbnEYMzNrrQ3CTbfqlwdmN7ey83u5lOY3189414zOWnj3F0GouoJKan+B/efnN1Tj3LfXj7bWb6+6KK0KDCRwxOW8uILt0tJqo8OqKM5cRFN9p/kKX8+mUYns6nj3Ejw/MYhkkkUi9OJh7u6pxqYx1Np7FsrKPxQGfHZG5yrUJuKHB6mt/aPCy/gfacW+ASEDiLACiJs8goLXxjA1PHn8Vg840T2N4GMXHqMSQdS3x1JbG4sI6OVXBySJJKpWcpCcdPiQG+ebp0Dp3GKshrI9pUXtpFUhIjw/O6DM4TXU8/7xx5x9T1fMRwHx1ZQIkM8GZiostltxwriZzM5gDfXHSXlqbsvAc6jaXL4KCQiNDimWnZe0CkUqmPZ7bt+xjcvbWKRCdk4CG272OyM5uIphL9M9MrVi/C6DRWdGQZMRz8P0sAVlwiYqAkfrbl/Fx8kQgbHoIBiZ/7OX7jXThFDBgfByVx6nFTuAvU5Jn/5qZQdHiE3NGRWCqVHd9koOf9RNdzbXULvyQSHUmlso0PFibBbCcuhmHCnX3Hz4kMDVZZSReGYfJKYn5uTUtTdlqD9gNXy+OzJgvzTymJirJuBUqCznlrFSnc2d/dPSA64c6+9asIopLAZyvQadlovGF9bTsyrERfz9vNJc3aMuLpYy931/SeronV1S2ZjJBIDw9F+/uHeMpC4X5RQTudxupsH8MDd3cPDg7IR3/iNEdHFtAyTyeHJDwQPL9AAHaBImigJH6h8fzELXB0BEV6ZTU1Y3UFxMTJ46ZQSch+tdM5j7XdkXv6yGt4cA4pib8OftB56IZfYup6treNEpUEhmFlJV2RYSXr67KjMOWVRDq3nk5jWZgGV1f1VZb30GksF8eUkMAC3LGduAqUBINjZhQY7J+PR0OeYP98M6NAXToHH5NAZUPv3YgKL+3vm07/8U4NH4/sra3d/f3DxLgqXbqbzkO3yLAS0eFRVkYTKdmQwAIXxxR521C0hR8LM084Hs+P5GW3xESXD/C+v3GUeBX8lycASgKxAiVx+Tbz0zEPDmA0AkYjrkRgeAht9PvptncrbyApCT5/0+5DrPWrCKJzcUwZH1vc2dn/bBtPDLd+FeH4ObGvZ+qvwyUdPyV6cTLlEfX3TX91SAr0k73MAn0mxpecHZMnJ2Rvu0C/+/W0PZ498cEdU9eTTmOVFJ2suBwZnn/E4DA02G+tIuWdliZb/7EXSUn0900/0fWMDCthOXG1NNmvX4bnZDbt7OwjG6RS6dDgnItjyuuX4V2d4wmxlXjuF3uYPsSDLn4UC/5XGgFQEgglKAmlNSn5hJaXQUlcqR9V04EE5Zq9vgbDEt+fLZKSwDBsd/dgZ3uP6ITC7x3w/v4hMXxnew+/dLAvwt/DSXpshcJ94iWRSCz68cbOzo7xAJ/ctpYRYrKDvNl0bv0w4aXhy0ubPh5ZPh5ZOzunDNvZ3jtettmSkdbw16wKMd/19Z2MtIa6mv6x0cWW5mGFsxIi0RF6EahIJCYacL5fuLOPjuUmZgd+JRIAJYFggpJQYqMiJzU8BP0oELgqgYlx2YlD8MEwTF5JABYgiJ3IZwAAIABJREFUcLMEQEkg/qAkVNUOd7Ypt2Wjr+eQ139E/MXc1bHX1ysihpzl7+7ab6hfb2neOiuCfHhLsyAlsU8+nBSSnjbY1rI9wBOTwkuLZxvr13n95HBitLaW7Yb69Z7uA2KgQn9/n+hbVFtSQg/xKq9fHB3RmhTfSwyU9/P6j/JzJrIzR+UvXU/I/qlfsKpqsdRPl9c3Tdq+QX2bwcLbTYCbXAttEsMwUBKqaudLi1f9MarcXqqhbk1fz8/NpQBPtr1t+4t9xqsX37IyRvDAszyJ8d26dI6fV8VZEUjh/X2it1bxTx/75GaPkS6RvpoZhZkbhzfUrxPDOzt2jQyC3ljGNjduEsMHByTFhdM+HmX1tauDA5LoiFZdunt66iApjvzX5qZN/ce+H98lE7VUd9e+Dp3z/nX8Xx75W/CQwvxJY4OgV+bRzU1kY/A4KvXAm8dV9ZRCukAACCiDACgJZVBUlMbE+DUpiZ7u/fra1fN/uw8OSBrq13XpHE9OCerzWpoELKc8tGHd2TGHwy50YxX6eJa3tWwr7BQT42UL1308yxVeVRiIbrF9n9zTraCfrq5cTkns4yb3P9cPtLaMTecOpCT3Z2WOcJP7UxL74mI6tR+4Odilc5N5KYl9menDeBZpKQPP9QPfv0loa9mKjmil01hp3AH8KslTW7PCds7nsAtdHHPpNBZT19vNpcDla05ocIObSwHLKU9Lk62n7eXqXMBhF7o6n8gsYjr9fSIH+3Q6jRUT1U4Mvzb/HBx5qegRgzAgAAQoQgCUhEoqQiJR+dRGX68ojTvg4Vqsp+Nl+DSwvHReYcfW3LTp71OVlTlSXDSjS+d4uBX39hzk507YWCcwNNimz0PMnoeaPQ9Fp+68tYpvb9sZHJD0dh+0NG8R3bfINjqN5ckpIQa2NG91tgsHByR1taspSf0klxDbpUOXLWJPiO0iXaosX4iOaEWHAh2/D4nN0GBrabo+YwZoabqSwhkabONnwcTSBfhVMzTYfl4VUeGyQ4LPURI1VcuGTwP0tD31tGVr7BkaLD1tz6ePffy9Ky1MI82eh6JABOHTx9TBAUlWxgjJWm5yf5C/7LXOL80ikxN6iVe5yf3nj2cQzf5l/+gILJVQyXMKiQIBIKAUAqAklIKRnMjBvsqVRFfn3rMnfmhQgaHJPktJ1FQtv7GM1aW7R4Q1az1wc3HMdbBPf/ZE9hZjC9PI3Ozx2mp+VeWSITNA56EbPs0RGtxgbBBsZhSGOwM9WV4GT/zwEDOjMONnwfYfuP19ovTUQWTJJf+NDG+uKFtIiO2ytUnR0mQnxnUnJvTEx3SlcQfiY7oS47pNn4c+1vZMTOiJi+mMi+lMjOseHJAM8MTlpfNdnbvlpfMWJhGBvtWhwbJ3JKYm87o6d0kOLbwY4Ik72oXtbTu11fwnut421okd7UKnL9mOnzNrq/ktTZvaD9ysLeNam7fa23bQ2ImdjWxr/iUdQ4Pdci1THscvfSQ3M/gOBIAAEKACAVASKqkF4Y7KlQSv/6ileauxYf3ju6RzlMTggKS2mm9hEoG6RnfXovTUwSD/2urKZXPjcOYj7+iIVjOjMF26e3xMF77sMey4h3Z1LvDklCD31SGLTmPZf+DiIRx2IZ3GemsV39tzWF25/C2y7VtkqxtLFshyyvsW1XYccvxvVJsnp4ROYznYZ3yLbP0W2VZSPIN+oD9j+utpewX516Qk9rW1bldVLPb2HJQWz+rpeH62S2tp3urtOUBugCfh9R9ZmEa+NIt6YRLxwiT8hUmEITOATmMZPg14aRZFdBamkWkpJ1MevP6j5sYNd9cif+/K3p6DN5axWpqulRWLLc0CN1ZhkH9te9vJnE5ifLfM8qi296/j6TRWZFgzsvl7caLanusHamm6+npVoCJfw5jE4IDk4AD2gqrkUYVEgQAQuDoBUBJXZ6ggBYHgmk6S4PUdXagkBgckadyBJzreaHoCdeEtTZvJCb1IXpg9D83NHmtrOdmXgZQEcbGk/DqJ2mq+lqYrUhL4uH1by5aFaYSpYUgjYQVlS5PgrZWsV87LGcdjytZOFkybPQ8N9JVNVfj7VNXWrLx+GfPudbyF6XfdY20Z++51PHKhgfUDPLGFacRbq3jkrF/FmTwLOZ50iDoJtIozM5K9UACf8ujvE322S8PTsbb6fterF9F4oJXFt7/mYoi2DQ5IUhL7dOkcH8/yvt5D/FJV5ZKWpuvTxz59PSeB+FXVefZ2FTSzuxYEu0DvWo1Tv7ywCxTVESgJlbTVzU1qKYm+3sOCvEntB25uLgXfItsc7NJfvZC9PNBIPzDIvyYna4yp6x0cUIt3hL+sJAYHJD5e5QxNNnG/ZW627GXN717HNzVs4FkMDkg8XIu1H7hVVSwiJdHSJHD8nOlgm67/2JdOY336mOpgm467+BhyT9/UsPHGMsaQGVBbzScmGxHWRKexsn4s0uztObB+JXut4pdPssQ/26YZPg0kpv/xbRKdxoqL6SQmMjgg4fUdvXsdr0t3r61ZQZd6ew7QoEtocAMpsqq/CuEF0XCehEr+VkGiVyIASgLhAyVxpWZ01s1UUxKDA5Ky4lntB27urkUBftVoAiIxrru2ml9bs1JSPKOl6RoaWN/ett3bIzub4SpKoq1ly9gg2EDPD23UbGvdNjMKYz7yyT09IJGXM/HXL3v0ZgQ6jaWlydalc9K4A329IoMnfk8f+bQ0Caoql6oql2qqlpsbT0kQ1G3X1axqPXB7/TImOaGXwy7q6txD4d7uZXQaq6J0AX1FSkJL0xUtDh0ckLx7Ha/9wK2kaBZFSEsZYGiw5ZWEbFgiqU+X7v7JNg3tHS0qmNLSdLUwjaz7oS1QCtfw7y4oiYuUhFSqeAJIevIhP68nV077yPGOv5+VvsLIEHhHCICSQBUNSkIlDX6LYrMbLU2bzl9y6DSW05ds42fBsv2Qj3z0tL1wd/y2Qzc9bS904ARSEs5fcrzcS5H7ZJtGp7Hev47HQ5y+ZOPrJEhdaURYs/YDt0+2aY31656cEoYG2+lLNilOX6/I2irueBBClvJL00jHz5mF+VNZGSPo7Yt6Ot/N06FzXF3ySbcPDkgiQhrpNFZYSGOQf62WpmwrB4rj5V4qUxJlMiXB6z9qb9uxfhWnpcnu6thFEayt4tBYCPqamTbE0GAnxp86tApdku3/tEvX0mQHBdS2Nm9ZWcToHMsddPU6/93bU0lDVa9EFc5u7O4elBR1On1Jdj52ft45gwOzeLmiwktcvqYg5/gpke3EjYkq29jYkUql4SHF+CWSx5OTSTyyWijcd/qS7PI1paSoA08ZPEDgr3e3gpJAzQCUhEoeB6FQ5SsuUTd2mXUSdTUr+H4EZ8ccB7t0S/MoLU3Xj2+TkHv3OgHNdHx8mxToV4OPSeD7M/FtmfIhpHUSyKq+3kM3VqGWpquJYYiWputLsyjSvAaKNtAvHuCJqyqX6DSWv09Vfe1qc+NmbHQ7bth7a5lhWpquOXLnSzbUr5sYhhjpB9bW8Ds7dr/YZzzR8fprdKG/T2Rrk8LQYFdVLA4OSPy9K52+ZOtpezE02F/sM1y+5jg75pg+l62ucLBLd/ma4/I15+O7ZDqN9eFtkrNjDumArMEBSU01/6VZpGwowiRCS9PVzaXgwqM7VKEwRGe+IFolDZiaicoridUVgctX2V4bLU1XYwP/5/qyeTHT5wG52S2oCLHR5bI9R3reZkaBps8DnjFlw2DmRkGzMysBvnlmRoFmRoHGBrKtTHQa67m+Hwpx+pIsEh2hFI6OxHExFShCUUE7NcmAVTdFAJQEIg9KQiUt8PC63gJ6oZKoreZbv4rTeejm4Vqspenq4VbS1bn75VMGQ4OVmTZ0fBz1UWX5gtYD19Cgel7/Edq+gcYk4mO60lMHkQsJqKPTWBy2bOsHcvExXXo6Xh/fJff3KThvu7J8kakrW+NJp7Fys08ttMQ72gGeuLlpMz1NtoP03et4+w+pH98mNdavV1cuN9avN9SvhR+POvh4lJE67wGeODhQZo+H2/eDtirKFgz0/N69jm9sWH9lHq3z0K26cnlwQOLtUfaM6U90aBHGj54jkHjpuX5gQ90abh7u4Sb3o/jmRmEN9Qoi4DFV5zlj5F4lrZeyiZL+aovFEh/PbIYGm/U1hdc/MzO9MjG+VFvd72AX39E+hkqBlAQuLKYml329ZGNpkWEleDHnZleZup4MDTbxRVz41dGRBe2HbqAkcCDgIRLgJtdWVfQSQ+6mH5SEqup9aPA6zri8UEm0t22/tYqPj+mqKFvAz7gsK5kzNQx5rOWBfrj/1X3qPOQEB9bhHWFRwVRKYh+x15Tfu8HrFzfUrSkcbCgvnbf/wEWTFAwN9vvXCYX5k3jiyBMZ1vxEx/uJrvcTHS/0m9LaKv7Lp8yqyiVry1gnh6yUxL5HDA9rq7iWJgHp3sy0IZ2HbhamkcTjq5MTeutqVrs6d42fBb+1iq+pkikJXv9RT/c+cp3twoa6NXsbLprKodNYbi4FhflTtTUr3V0ozgHxLG10ezp3EG0GkS3poHNYX3MRNJJJKv06PgYnUyl4ThvrZQtcTA0DBIJTq0gO9k8GcJCSyEpvxO+fnuLTaSxL81B83cPkxBJSErz+GTwa8ojFEgf7BO0Hrq9fhtNpLNKYRFvraGx0eZB/fkJspfy9pKTgKxC4xQRASaiqcqenrmP7hkIlUVez+sU+w9UlHx2ahLpb0mnZGWlDshF+23TZQdpySkK+X5RXEvJx0FxARGjTs+NjHj6+S8rLmXCwk50z/fSRjyenhNgHp6cN2tlwnR1zwo4HHvx9qjqP1zG0tmx5uBajPav4JAWe1wBPkps99kTHy9QwpDB/Cg/HPVUVi0b6gdZWcXgI7qkoW7D/wEU6Iydr7It9hs5DN0NmgINden7uBB4N95SXzrOc8nQeujE0WBx2YUHu5Ctz2YaX5/qBKUn9pA0j+F2q8MzPK15LqKq2qybpBvjKjntPSaw5x155JTE7s4KUBH7XOUqiqKDjEYPj55WTklhDVBISiTQpofoRg8PQYOk8dDteL+xWVtKFpwkeIHCnCICSUFV18/k3piRQr0+nsUqLv29PkH/vRlfnroNtelb6cHfnXn7uhNYDV+KYhHx3eL6SaKhfLymadfyciY6KMnjiFxJQ1328maKrcy86otX0+Fzqp499PrxN5Cb319eudnfuo/OgSotn0ToJYqa5WWMWppGyPSZfc/GXePH6RKFB9cd/uF2Jm0J5/bIJmpKimdLi2byccTqN5eyYg6dWV7NSkD/p6pJvZBAkW3PqkIUM4/WLy8vmv9hnPNbyMDIIcvqSjcZg6mpWEuO6Lc2jnjFl0+fWlrE5maPoSImuzl22cz5aNfJcP9DVJb8wf6q9VXa+uErd5gYoCfJzKlsF6SDbvltT3Ue+RviOlEROZjMeFh5SRKexoiNK8ZCzlMTkxJKpYcAr89DlpU1usuy4dHxMorVlREuTbaDn3dw4tLOz39w09NI0xOSZ/9joAp4seIDA3SEASkJVdS0UXoeSGOCJnRyymbreaKsC6s+qKpdemkWaGYXhfbC8kkAx31rFW7+KszCN1KVzFG6DxDvI85UEev8FncYyex7q4VpMPJYKpdDSvBXgW/3CRDZE/FjLI8C3Ck9ZoZIYHJA0NWy8Oz5l8sPbJBQ5MaFHl85Bh3wT3yTe3ydiO+ejmWz0L74yw8Y60fz4oCp0iFZuzji+gwOliZZ8fnwn65OOX0m69uFtIkrEwiQiLqYTvYgEt7av57C8dN7OJuWxlgd6E8dZ55Tjt1zdA8st5Z/Sne29509l6yubGobQ1QDfXEvzEORevQhDgUhJ+HhkJcVXhwYVWr+KMGT6Gj/zn5rk42mepSR8PGUrKirLezAMI45JHB4eebhl0Gms8tJuPJG0FNnCHaJAwS+BBwjcegKgJFRYxWNjqv2pirqohvq1qopF0vs2G+rWiGsIBgckjQ0bTl+y//pNT+zYYqPbHT9nOjlkR0e0kpYIEKMNDkiS4nssTCP9CQqAGKG1ecvpSzY3madwxSIes6F+LTd7zNujbIB3Qqa2ZsXcOBztGcFjIk9T48aXT5n1dbIXiMveu9Evzs+dIE6R4PFzc8YD/WqcvmT7eVVmZYzgR0eUFM3YvE0MDW6oreb3nn0qZUuTIDGu241V0N6209y46e5aVFI0QwKI54XWT9TVrMbFdEaFtxDDVeGfnoZFEgoeUuHOvvUr2VmozU3flUSQf77+Yy/9x7JlN8/1fdEaVaQkkDRkaLBt38e4sdKI20QxDFOoJHq6J5m6np9s41ZWBIeHR6nJMqFQUtRxeHgkFO4bMn0fa7kTRyB6uifpNJadTYwCWyEICNx2AqAkVFjDa6vXMSyhit4L0qQOAYEApja+P6QO9gm8vmn05fDwCI0ZlJd+X52wwhdMTS6vrW3rMjgkJVGQ1zY1yZ+dWZmfW5V/4BUqCXNj2VyYlUWYg32Cg33CawvZcNqrF6Ef38WsrmzpaXswdT23t09O+UDLL8yNg+TTh5BbTIDXN423yVtczAuLBkriQkS/HkEiwYaHTn58U6dzAkvUhQDs2iA+fqTzJHKzZe+UZztxxeKTYZvlpQ15JUHcu0FMEPkVKgk/rxwOOx139h9ij4ccYr09sra3dp2/JOvS3YhjG22tI8gY+fQh5BYTIO1MvsUlPb9ooCTO53PVqysrMCwBWurXCWxuwoDEyTNIUhK7wgMrizCGBispvnp//xDFW1/b1qWTxyR+QUmc5HrsQysuiwu/n3EZE12u/cAVXxWxv3f48V0MncaC7Rskbrf+KygJVMWgJFTe1CfGQUz8eleqLoMHqrBzZhpkxKnHk6QkMAxrrB80N0JbcpL8fXKD/PPR4MH7N1HoTvldoKdSPP6icEyCFI244hLDsO3tPQvTYD1tdw/XjOiIUpaT7JCSL/YJa2vbpBvh6+0mAEoC1S8oCZW3c+HONZ2crYrODNK8QQIH+ypvnOqVgbySwDCst2fS8VPiIwZHl855rOX+WMvdzztnanIZFS0yrETnoVt2ZtM5JZ2Z5hs/83+i60mcrSDF5ybJ3u1SkNeGh0+ML3HY6Y8YHD1tjyc6HgG+eYsL6/hV8NwRAqAkUEWDkriOBg9zHDfYH6tp1htwhoTco6lQSWAYJpVi62vbLU3Drc3D29t7+OGVGIYN8GaaG4fm59bkEjsJkEikrS0jLU3DxLd2nVw+9k1NLjc3Ds1MrxDDpVLp2upWa8uIUAiijwjmDvlBSaDKBiVxTY1+YR7mOGCO47IE+Mswr3FNDyZkAwSAwNUJgJK4OsPLpjA7A2Lisl2pmg4kKMXsxQWQEZd9piAeEAACVCAASuIaa0GKzc5CVwoEziMAMuIaH0jICggAAeUQACWhHI6XT2Vx4byORCk/aiERNSWwwofRiMs/SRATCAABqhAAJXEDNbG+DtMcIKdOERgZlsBZljfwKEKWQAAIKIMAKAllUPz5NA4OsNmZU32Jmv6MBrOvTmBhXioSwWjExU8RN7kWTia+GBPEuEYCvL5pPl9wjRlSNCtQEjdZMdvb2PQUjE/cXUU1OyMRCkFDXPYZPGsX6GXvh3hAQNkEYBcoIgpKQtkt6+fT2xX+/+3dh1vTWgMG8L+woC2IoKKAICKKioqiOD5bpiCyQQQBGYJsRGTvvSkbyixQ9p5t8xkOxt7Tgg2yeX363Nukp8nJLy15m5xzoh4fU/d0I1Kcl0jR26OaGFetrSJD8Pu2IEnw80LpwxfAZ5IYI0kc/mdN7zWsrDDTU+rRUbWsX93dhWBxdoJFd5dKJlPJR1UzM+o1DGKk9zeCKkhuy0nNxCQEjlFAKBAX5rccYwVOyKqRJE7IjtBRDbWaUSoZ5RYep1lAqTnioo69jFn6C5DbaKGphP5iKHmoAuQDeairOC0LR5I4LXsK9YTAeRdQKOZxMvm8fwhO0vbj08jtDSQJjgJPIACBky6AdvInfQ+hfudSAEniXO52bDQEIAABCEDggASQJA4IEouBAASOXCAhroQ0w+T+S1VB2jrIvUSeaDez+GsBai0JcSXUWqgCLs4x1Fr2UQ191sK3GgzDHMbGUtU4IRurTzWoHbcPc2rbz+0kksS53fXYcAiceoHC/Bbq0Ehtkqx/giog65+gylAFtJviR3zM1SwT8TGXWoJ2Nai1aFdDey2aq3BxjtFeC1UNF+cYvtXQThLa1aDWol0N7Y2lqnFCNlafauxjY3EHeWp3k0kkCZ0smAkBCEAAAhCAgF4CSBJ6MaEQBCAAAQhAAAI6BZAkdLJgJgQgAAEIQAACegkgSejFhEIQgAAEIAABCOgUQJLQyYKZEIAABCAAAQjoJYAkoRcTCkEAAhCAAAQgoFMASUInC2ZCAAIQgAAEIKCXAJKEXkwoBAEIQAACEICATgEkCZ0smAkBCEAAAhCAgF4CSBJ6MaEQBCAAAQhAAAI6BZAkdLJgJgQgAAEIQAACegkgSejFhEIQgAAEIAABCOgUQJLQyYKZEIAABCAAAQjoJYAkoRcTCkEAAhCAAAQgoFMASUInC2ZCAAIQgAAEIKCXAJKEXkwoBAEIQAACEICATgEkCZ0smAkBCEAAAhCAgF4CSBJ6MaEQBCAAAQhAAAI6BZAkdLJgJgQgAAEIQAACegkgSejFhEIQgAAEIAABCOgUQJLQyYKZEIAABCAAAQjoJYAkoRcTCkEAAhCAAAQgoFMASUInC2ZCAAIQgAAEIKCXAJKEXkwoBAEIQAACEICATgEkCZ0smAkBCEAAAhCAgF4CSBJ6MaEQBCAAAQhAAAI6BZAkdLJgJgQgAAEIQAACegkgSejFhEIQgAAEIAABCOgUQJLQyYKZEIAABCAAAQjoJYAkoRcTCkEAAhCAAAQgoFMASUInC2ZCAAIQgAAEIKCXAJKEXkwoBAEIQAACEICATgEkCZ0smAkBCEAAAhCAgF4CSBJ6MaEQBCAAAQhAAAI6BZAkdLJgJgQgAAEIQAACegkgSejFhEIQgAAEIAABCOgUQJLQyYKZEIAABCAAAQjoJYAkoRcTCkEAAhCAAAQgoFMASUInC2ZCAAIQgAAEIKCXAJKEXkwoBAEIQAACEICATgEkCZ0smAkBCEAAAhCAgF4CSBJ6MaEQBCAAAQhAAAI6BZAkdLJgJgQgAAEIQAACegkgSejFhEIQgAAEIAABCOgUQJLQyYKZEIAABCAAAQjoJYAkoRcTCkEAAidQQNY/UZjfkhBXovkozG+hqqpdhiogbR3UXEJCXIlCMa9ZRqGYpwpIWwc1CzAMQxXQrob2WqglaK+Fqob2WrSrQW2sPtWg1qJdDe21/HVjqWokxJWckI39azUOY2OplZ69SSSJs7dPsUUQOC8CQoFY++HiHENtv4tzDFWMKpAQV0IVoA4n0tZBqoD2oZEqoF0N7bVQ1dBeC1UNhmGotWhXg9pYfapBrUW7GtproaqhvRaqGkKB+IRs7F+rcRgbmxBXQiFT1Tjtk0gSp30Pov4QOL8CZ/uv8/ndr2duy0mu0s4oZ2ZDkSTOzK7EhkAAAhCAwAkVIGektE/enNDq8qwWkgRPMBSHAASOT+AM/6o7PlSs+YgESJiQ9U8c0fqOcDVIEkeIjVVBAAL/IED+EOOKxj8Q4q3HLODiHBPxMfeYK3EIq0eSOARULBICEDgEAXKx+RAWjEVCAAL/JIAk8U98eDMEIHBkAkKBGFc3jkwbK4KA/gJIEvpboSQEIHCcAkgSx6mPdUNgdwEkid1t8AoEIHCSBJAkTtLeQF0g8EcASeKPBZ5BAAInWUDaOojmlid5B6Fu51YASeLc7npsOAQgAAEIHLWAi3PM2QvESBJH/THC+iAAAQhA4NwKCAVi7ZuhnHYNJInTvgdRfwhAAAIQODUCSBKnZlehohCAAAQgAIETKIAkcQJ3ytmskkrFrK8zKyvM0hKzuKjG4/QKLC2x+3F9nVGpzuZn9Si36uxdXT5KPazrhAggSZyQHXE2q7G2pp6eVo8Mq3t7VB3teJxBgd4e1eioemZGvb6uPpsf4kPeKr69QCcm5oYGJ5VKhLhD3jFYPB8BJAk+Wiirn4BKxUxPq/v7zuCBE3loD4EBmWp2FnlCvy/J71LaSWJSMc891tc31RqiSqXKwzXJ2sJPJjuAGyZ1dY5EfsprbOj7XRf8HwIQ+COAFpd/LI74mVrNTCrUnR3IEOdXoLtLNT19xJ+7U7w6KkmMyWfsbAJtLP3Zh4WfpbmvpblvYkLZzPQiwzBbW8r/vYwTGUgOJEm4ixOFAvH7d6n742tplsVEFdbV9uzv7XgXBE64AJLE8eyg+Xl1T/f5PYLu8WP9HL7U16taXNT4NX08H8lTsFbtJHHpopvxBVe3t1+9PVLEb+If3A0TCsSBflkHniTKS9td337N+9m0DyalUuXkGCEUiB/Yh62srO9jCXgLBE64AJLEMeygMbn6HB4vscl7CygmECb+8mXUmSRu3viwtrZB3jk3u/TgbpjltfddHSPUOYmF+ZUB2YRmm4nZ2aXxsVnNCyJkIerfs5RK1daWkquT5nOVSqW5KK6Mzie/Sr568UUoEL94Gr2+vqmzDGZC4FQLIEkc6e7b3GQGZDgVAQHdAiPDapUKeWLXr2RCXIlm940x+cyli26aSYJhmP+9ihMKxNVVXVSSGB+bdXGOeXQ/nFt6SVHbi6fRURH53Jy+3rFnTz4/d4p6+igyJanCyTHC8d5HEiB+/mhwfvKZ3Il0fW1T8iZB8iZhZHjK733Gsyef2ZdiS+bnl7lFUU+GBicrytqnphao+ZiEwNkQQJI4uv24sc6gX8bev8vx6oBMpfzzM/joPpyncU3aSWJ1Zf3F02ihQNzU2E8liaHBSaFAfNs6kNvS4qJWoUAc8TGXzKmp6jI19hAZSG5bB9y2DrSzDhSUDD+CAAAgAElEQVQKxHduBZEk8eN7vVAgTkmqYBhmaWnt4b2PIgPJc6coO5vAO7eCblzxEQrExYWt3MLxBAK7CVCBeLdip2s+ksQR7a/NTcQI3T/EkR4ogQGZ6vf59SP6cJ7S1XBJYnVlfXVlfWVlvaSoTWQgtjL3HRxQ8EoSq6sbr56zFyBSkysX5lfUanVFWcfeSUIoEL90junvG1ermZxsNme8eBp9SiVR7aMUQC/Qo9Q+a+sakKFtBJKEvgIjw7jG8fe/ACRJmIjcPd2+ebl/Mzf1FgrEJkK3qspO7RaXe5+TqKnuNjKUPLofzrWIHBxQiAwke5yTuHTRbWhwktRyQKYQCsT2tsF/rzRKnHsBJIlz/xHYL4B8FDFC34Mo9QP93E6iAeZfv20kSWynB/crl7zu3g4O9MtqbpKRJpO8zklkZ9UJBeJPYT+5lQ7IJvZOEqZGHlOT86R8X++YyEDscCdU/2aY3Irw5LwJIEmctz1+MNs7N4sYgRixH4FFdlgE/NtVgCQJG0u/ubnlrS2lckupeVWIShIjw1NCgdjWyp9bnGY7icNOEmo1MzO9yPUK4eqAJ+dQAEniHO70f91kpVLd3bWfo8i5/S2ODecEensxzPN/voB/7QWqWZpKEqMj0yIDiY2F368mEaTYz+wGrsVldVWX8QVXJ8dIrkPpAZ6TUKnUwQHfb1zx8fFMQS9QzX10Pp8jSZzP/f5PW62YwAkJBKn9C0xNosHEny/gfpKEoaS3R84wzPjY7LMnn82MPVubBzY3turrem0s/bkkoVSq3rxku49+iSrs6hzt6hx97hS1d4tL/a9ubGxsXTdj23Bcuui2uLD6Z3vw7FwKSFsHFYqd62JnBgB9Nw5xV25tMdzvSzyBwD4EujpVuIko9xXllSTUanWQfxY7suTdsKVF9vjt653GdgS9GXDfPtTU2ONXquCSBMMwDXW99rbBQoFYZCARCsTGF1wPKkmo1Ux6apWLc8zHkBzN4a247cITCJx2ASSJQ9yDk5M4IbH/n+P7OO6eybdMT+O0xM6XVDtJXL/i89I5ZnNjS+fXuLlJ5nAn1NEhfHBAwTDM3OySi3PM4wefHt77GB76s6VZZm8bFBm+M54EwzBDg4q4L8Vu4sTEhLKpyXnNFpc52fVXTLziYooZhllb2/jfqziLq++5FpeDAwqHO6G3rQPR4lLnjsDMMy+AJHGIu7ivF8dRCPyrQH8fWkvsfEmpJLG5qZT1j3NdMXV+k8fHZ6kCQ4OKzc2dwb9k/ePkdl/a75WPTgsF4lu/W2guzK/09sgnxudIyZHhKVn/f8be7u8bHx7a6RSqvTTMgcDZFkCSOKz9u7JyWk9IVJTPtDRvkN/30jZlS/O6tE2598/9dqmypWmnWGvLRlvr5t7l8SovgbVVnJZgv6cuzjFkvOrD+NLWVHdHfsqT9Y8vLa0tLa35eKUKBWJ/38zDWBeWCYEzJoAkcVg7dOp0XtqQtinv3/l851Z4c9NaR7sqIa7NROgeHdlYUqQQv8lISe7WeQgsLZ68dvm9t8fP8rIZO+sw17eZrS0IE/96NoKjxp3HD+tbqrHcgA+ZJiJ3kYHk0kU3kYFEZCBxfvJZLp/RKIKnEDgAAbS4PADE87OIwcEDO5BwR5R/edIu1as+BXljl0Web16mknVFRbI95aIiG/JyR+/ZRdy8Hpia3KNdDU+3HCNDSWx0S3XV/KWLbvfsIkgQ0S5ZW7NYUjzJPRobVrXLYA4lMDyEcxKH/pdjbW2jtrr7S3RRwIfM6MiCgrzm3S58HHpVsIIzLYBeoGd69x70xnV16nXkpo4ZhzEZF9PyxiXV3jZc8r/M+NjW5kb2ZMNujzcvUowMJempvaTATpKIqO9oV+Xljt62DnW4E5mbM6z59oK8MVNjr9vWYY31q78ChHaSaKxf4cp7e+Sam74nj6sm3tcu+zg6RCcndukZdLjlHNKTgA/Fnq4/qqsWDmn5+1tsTzeaShz093P35aHV5O42eOUABJAkDgDxnCzihPT/LC+bfv0i+eb1AJGB5Npl9naFIgNxkF/pbu0Yigomrl32eWD/+UfWQEZaX0ZaX3hotVAg/hhSlZHWl5U5EB3Z+MghOitdVlY6xR0UnR6xHfETE9o72lXaSSItucfGMjgne4iU/+BTyHbMuxclfpMhfp3u5BgrMpQYX3DTeaqDW8WRPXF0iDYydC0uUhzZGvVcEW4Qek7+dGAzz7wAksSZ38UHtoErKydiJIlvXztvWYY8d/paVTlXU72QlNhhZCi5JHRvaV7XPoBVV845OrB3ZP4UVn1JyF4wJh3rhQIx6WTPzREZiMOCKskSgvxKr5h429uGV1XOaSaJpobV6sr5kKAKc7P3N65+8PHKI+VJkgj4UEImW5rWw4Iq2dsqPv/WLmXbdbY0b5AGnu1SZUmxorpynquqtE2pfepC2rbV+qd96BZZCPcW7czU0rzBlaEcmhrXbt4INDJ0rShj25xK27a45Rz7k/V1XOA4sK8nFgSBYxRAkjhG/FO26sXFk9JxIzO9v652iRwIpW1bNpZBRoaSEl2/uYP9y0hoSIxvDwuuJI9XL5KFAnHAh2JuDnnyPVPW0a5K+tphdukdOcdAVsGdk8jOGiC55JZlcFJiJ3ckppJER7uqrmZJKBCbm75vlyq/Zw7YWAR5ueeEBJbfvf3pllVIyrduadtWdtbAw3vRDnci796OePEs8VdrDLLAdqnq7eu0B/eiS4onXZ4m3b0dcff2p0D/0uqqhdjolgf3oh/YRz2wjyrIGyPl01P7blmF+HoXhAZV3L396b49u8DYmGZ2WxI7ba1CTI29hAKxnXXYw3vRPu/yuWof+5NVDI3IMAlxJdLWwVP2twDVhcB/BZAk/uuBqd0F5uZOSpLQPARK27asrgcYGUrKy2Y053e0q75EN5PLH0KBOCuDTQkd7Spp25a7JFsoEOf+GH72OP6bRiDoaFdFRTaQ4652kiCJxNoiyMM1u6L8P+vSThLfMwe2O+6HtEtVGWn93IkQG8sgW6uQwvyxuJgW4wtuRoautjdDb1kGX7/ia3sztKJ8druGSmenr0KB+JFDtI1lsJ112I2rH8wuvXv5/Nsty5BblsE3rwcIBeL7dz7X1y13tKtSkrtJ3YQCsY1l8C1LdkxDM2Ov6MjG9LQ+l2dJl0Ue7AkS528uzklhIVWU0jFOrizv/mk7N69Q40mcm+3Ghp4pgYS4EoyWfab26OFtzPz8SUwSJUUK4wtudtZh3HAR3KExJ3vY4ppfaFAFmyTSd5JEu1RlZ/PxssgzN2dEKBAnfe3gyne0q8RvMm5c+RAcWH7LMvjBvSjyEjknIRSInz9NLCwY1yxPnpMkERxQ1t6mbKhbrqqce/zwi1Ag9vL42dHOJglypHeXZJcWT0nblE2Nq/fsIkQGkriYlpam9XapMiykSigQuzxNaqhfkbbtJIk7t8LJiZb37/KFArGRoWtoUEVz01reT/m1y++NDF1Liye5JGFl7h8f21ZRPltdOR/woVgoEDs5xrZLlU0NqxbX/LnC2pU/xjlIEgzDIElo/8lSq9Xr65uHNwh3fW1PoF+WrH+CYZjl5bXx8VmdD+7OZ9o11GfO1NQCKaZSqTY2ttbWNnQ+qM1Uq9Ve7sm5OY3kvQV5zaFB2UODkyqVmoxqqnPV/X3jaSlVI8NTCsV8WkpVXU2PzmKYyUsA40nw4tK38Mm5uqF58HMTfze64Ob/vkhzJvc8Lqbla5xUM0m0tmyYGb97YB/14/ugdpLIyxn5/Km+pXnd3jacShL2tuGNDX/6a3Cr6GhXkSRx3z7S5VnS44dfjAxdRQaSu7cjKrZPk2Sk9RsZut69/Yk7axIf2yYUiH+V5FotlJdO294MvXTRPe/nKJcksjIHyFqyts9w2FmHcQNa3L39SSgQ5+WOkiQhMpS4PEviqlRVOWdk6Gpq5NnYsNLSvG5lziaJE9jichWDUyFJaP356e0Ze/8u1f5W0NNHka0tA1qvH8CMivIOoUDc0ixjGKaivOPKJc8bV31uWfpzD4urPqbGHprH44K85sSEsr0fRQWtXOWqq7qePopMTa5kGGZMPmN7M+DmjQ86H29exnHvYhimuUlmfeOD3/t0MtPTNcnIUNLaMpCVUXvPLiQ6skCzMPc8KiJfZCD5nlnb1cn+QIqNKeJewpN9CyBJ7Jturzeurp64cxJpyT1ml7ysLYLqanaaTXBHU+5JYvx/kkRacs9lkaen6w9yeKbOSZB3tUuV2klij/EkSJIwvuBmZux1yyrk7eu0sJDKku0TBuSchJGh67PH8VyVAj6UsEMN/jf93LOLFArE3zMHSJIQGUi4jqk/stnQY2cTxjWrdHoYy8agRPaESkpyt8hA8vpFCrf82prFq5d9TI29MtL6T3KS2Ni5FfZen7oz/xp1TkKhmA/8kBkS+D0k8HtwwPcvUYUp3yr7esdOiMPmxpZcPrO4ffMwUqW+3rEg/yzNCmekVY8MT+2vwlNTCw/sw0QGktvWAY4O4fLR/QyipVSq5PKZPUbO0EwSZaVSI0PXyE95uTmN3CM6skBkIKmq6OS2wvUte8Fx74e3ZwpXfnFh9aVzjJ114KewnyPDU+/ck3/d3p16PHkYYWTo6uQYwb2LYZhAv6xfI4l1tA+TmV7uyWySaB5YXFx955FsZx2YllKlWZ5hmN4e+RUTrxdPo9fWNjo72CTxJRpJgkLazySSxH7U/vqeE9ILlDtelhQprpp4X73svdsglaQklSS8PXNFBpKkxM6MtD7tcxLkLfokicaGlfxcOSn/++pGubRta7svxn/G4SbnJJ49TuBq7udbJBSIA/12+nqQ+SRJZB1EkqirXTI19jIReZQUKU5yklCj64bWOYkx+cyli26kbzPpWCQykJgZezY19P/1G3oEBUqLpRZX33+NK+XW1dU5QpoBiQzYO46yD0PJVROv/aWfwQHFdmgOXF5a29jlHmbcqnd70tTYb3H1/ceQHO0CgwOKupqejFS2H3hFeUd9XW9ZCftLw+q6r4NdCPewuu4rFIg1k0RtTU9JUdveD81zGOx1k6U1t7df79uH1tf1ymQTba2DLU0y7tEuHerrHXv8IFwzSXS0D5sae7i9TeSymruEPSfR1sqem5HLZ547Rf3vVRx3l7Vfo62rVGofr1QjQ0lRQQvDMNpJYnh46sf3eu62LNommLObAJLEbjL/Or+356ScligpUty2Zn+7hAXvdN3kjtPUE80k0VC/bGMZbG7m29K8oZkkCvPHPF1/cL0/9EkSVRVz1y77hIWwaydJgusFSlVAO0kkxLFXN96+TuPOMexc3RD+ubrB75yEoeSl8zduvaS9p7mZb3ubUtq6ZXHVb7e+Ldxbjv5JXy9GptLxfSRJ4paV/8z04vz8smJiLjmxXCgQW5r7Unft0vHmw59VUsR+dLWTxKP74bOzS/PzyyPDUzGfC8i9y7l7g+lfr5pqtvmw+E2C/m/RLtncJNseMEZHkkhPrSKJh3QCtzL3TUuu0nFO4jN9TkJ7LfrMmZpaSEmq2Nzcevoo0vHeR83Hg7thWRm1Tx9Fcklic1P5zoMdQ+9T2M9XL76Qx83tTOPyLJpMPnkY8dwp6o1LrGJi575rhfktIgOJ+E0CaW9BJYnmJtnDex+NL7hWlHfoU2GU0RRAktDUOMjnI8MnIkkU5o/bbPdQ8Pctrvnv0I0/sgcfP/ji976IG1aBSxJtrZs+XnnGF9yC/Eq3u1T8OSeRlztqZOgaEV5LDqjaScL4AjtadkvTnyErSkumyPBW+0gStdUL9+0/X7roRnqOtEuVwYHs0eLZ4/imhtV9Xd0Q370dQVqDVpTPvt7u5vr+d4dPq+2+HoX5bK9R7bErjj5DkDWOjiBJ6PhukiRx88YHrrnf0uLqs8efhQJxY0OfWq3+8b3+W2L5zPRidWXX17jS+C/sPcEZhhkdmS4pakv5VtHc2L+yss4tukM6FB9b0tTYPz42W1XRmZhQ1tzEnt7Y3NwaGpzMyqgtKWqdVMyT8iqVOiu9JiWpYnpqobdnLDO9pqighdwOVKlU5WQ3eLp9EwrE79+lfo0vjY8tmVTMk3MS9+1DVaqdU0yzs0t3bdkORL09OxdlyKq/JZZXVXRyLfynJucT4koy02smFfP5uU0JcSVRkQUfQ3LYL8KTz4nxpTnZDaRWY2MzVZVd376WV5R3cG8nLy0vr3W0D2ek1fz4Xj88NLW5sVWQ1xzknyUUiD1dkxK3Kzk6Ms1pNDb0ZWfVxcWwTZIT40uzs+ryfjaJDCSBHzK/xpdyj+CA79w5CVn/eEJcCffS3k8S4kpk/eM1VV2J8aXkkZFWwzBMfl7z98xazUd2Vl1dTY9mksjNaRQZiI0MJSnfKsxN35EHuZ5y7fLOJJl546qPfJTdqJYm2Z1bQex4OR937iPPJQm26WVylbWF36WLbu88kleW/3wkOI0DfIJeoAeIefYXNT19/EmipEjB9e20NPe/bR1KHo4O0Y31qx+82d9DIgNJXe0iOWKRJJGTPRQX02Jk6OpwJ5J0tkzfvroRHdmYkz0c9aneROj+NU6qM0m0NK9fM/W5dtmnMH/sR/YQeZCRKkgzC77nJDraVfGxbZcuulma+9tYBt+8EXjdzPe2dRjpXLqPJEH+3NhYBN2yCrG46kdGjygt3hmy03fb5MYV31tWIe6S7OOKDtR6Z2dxbUPHXwztJMEwzNtX8eyBrbJza0v5v5fs6Kv+vhlkp3+JKlxdWc/KqLWzCeSu4j9+8Ilr519e2i4UiF3ffrXfPrpvdxX2S0+tiokq5DonP3kYQYLL2trG00eRIgO2/DVTdlQVoUB88/qHjNTq9bVNK3P2nD/3eHA3TNY/oZ0kGIZxdAgXCsQd7cNqtbq1ZYAc7cgb7W2DyFGwv2+cNHV88pBtPnxZ5O4uSeIWvj3iS6ZarZa2DVFvH/7dCGNubpm8l7xLZCD5FJb74G6Y5kJsrfy5Ngcct2Y7icryzhtXfUyNPKiH7c0AcrWioa6Xg9Jc8m7Pa2t6vkSxg96Sh4ckiaxXpVJrPhiG+dVFhUsSba0DdtbsHjQylEywd41XDA0qZmYW376Ot7j2nnQtmRifI/OHBifn55cHBxSODh/JWqgkEfAh89F9dhfY2wY3NfQdwVjpSBLcpwtP/i6wsXH8w1x+zxwwNfLSfjg6RNfXLX/72nnPLsLJMY7rFEqSRJB/qbVFkInQIzO9nxzS8nPl5Mc6+SqaGnsV5O20e6DOSbRLlW9cUrg/DdyTW1Yh5IKIl3vOtcs+Qf6l1MGSTGZnDVia+/86CaH5qrRtKyd76PGDLw/uRt2/8/nl82/cWFvtUpX4dfpVE+/cnBHylpwfQ1dNvJ87feWuhrx+kWJ2yUujxaX40f0Y8ev0+/af79pFvH6RUl42za2uqnLuf6/S7tt/vn/n8xuXnduYca8e15PNzb9/3s5hCe0kMTO9+PDexxtXfLo6R7gkIRSIIz7mVlV0Njb0kZP5pkYeWRm1rS0DURH5ZsaeTx9FLm//DCVJQmQgdnKMqK5kfyuTD/B1M+/YmKLK8o4XT9lBYNOS2XZ8JEmQaxOpyZUd7cOR4blsMwJz35HhafnoNDln8DWutLtrVCZje1FqJ4nRkWlbK38768ChQYWsf9zUyMPeNri4qLWrcyTyUx6JQQzDkCSxPfaJZ0ZaTXFha2/PWEFeM3vh71W8rH9cPjozIJswM/a0vxVUXMi+PSqS7Q5N+jUsLq46ObKNlF+/iG1pktXV9ri+/VpR1jEmnyHbGBqU3dM12t83rv0pIkmir3esq3MkK6M2LblK5yMro1Y+Oj0zvdjdNdrZMaL5SE+tFhlIcrIbNGd2dox0dY7OTC9OKuZ7uuVdnaOW196TJDE9tcA2cXgZRx4uz2JSkys1k4SXe/Jlkfvd28HGF1yXl9dInSfG565f8X50PzzuS/HVy17Tv7uVkv4gzk8+m13yfOeezEao/56TYPOihV/8l2LNFhXaDgc4B0niADHPxaIGZLveKOtojkm11Qv5uXLtB9dXorR4iru00dGu+honNRG65+aMOD9J4PpVkqpmZciC/cv8fYsD/Uu55pNk9Cpbq5BbVuy4UqRkdeV8/JfWAL+SAN9i8oiObCwt2fnRX1E+U5Anb9r9FqCFBeOah3ZNqJLiSTLAlObM8rKZwoJx7p6ijQ0rhfljZPQIUqy8bLogT169PZj3Tt8NF7bvRnnZ9G4rKi2eLPtdYc11HcvzoUGckND954IkCctr74uLWn/+aIyNLiKXNnw8U9RqhksSQf5Z5Hjz61zCq+fs4CUVZX8uhLttdzT4+YO9OkCSxP9exi0vsccnxcTc4wfsOYCaqi5Sg++ZtUKB2PddGpckRAaSxvo+8urszBKpQHEh28UxNoZtLJwQV8LVniQJe9vg0mLpj+/10ZEFTx5GCAXi0KAfDMN8CvtpfME1K6OWlJ+ZXnx0P9zWyn9MPkOShJmxZ0FeM7c0cozn2klEfsozMpSQCwQMw8zOLj1xjLCx8JOPTjc2sFcn7W2Dx8dmubeTJ78SlVAgDgtmK6D9b2lxlbS4vHLJ89clmCuXPE2Ebuam3uam3uTcg7kZ+9zc1NvGwo9zYBhG2jaUnFRBTvakpbADwJDrLwsLKynfKudml6h1bW5s2d4MIElibGzGROh+zy4kNOhHwIdMUyOPxIQyzSTR2yOPjSmK+JhLJQmRgdjDNSkupsjM2JPqjRIW/CMkMLu1ZcBE6EYlCQ/XpIHtnEdV6fAmkSQOz/ZsLnl29vgvcPA6+FWUz+ZkD9VUn6w7YfLahL0La/cC3bv8SXh1fh5JYufvAzVUNkkS5LTBdlcIsbnpO3/fDNLCjiQJzV6Cvw7J10zf3bzuq/nj++ePBnJ1gEsSoUHZ3N+j1y5sF+LGhp2sUFbKdl7wcGVPwpNzEiZCd83Dc3joT6FATIZG2C1JkEuKRoauRoaS62be4aE/f0WQjY2txw8+iQwkCbElKd8qU75VpqdWOzqEX7ro1i4dIknCzjpwdfVPb2DNJLG5qXRyjDAylMR/KSZvT0upevzgk/EFV2nrILmCkJJUwW0X92SPJBEXU3zPLoTw2tkEfvta3tU5+vDex+Skir7eMRsLv6ePInu65a3NA63NA9K2Ia7/yNrappNjhL1tsLRtiGEYzSSRmFBmfNEtyD+LGmNKO0n4vkvb3NyamV60tvCjksR2LwxVdGSBZpKoquzcPl1UGRutI0lsbm4xDDMxPndZ5E4liaPvBYokwX388ERfgZ7uYz4tcRKOhSenDqcuSaDXhuY3jfqJT5LEtcvv8n42/vzRUFXR2dU5wpXnkgS5ssAwzNDgpMhAYmcdqHktvL6ulx2S1SlKI0n8+YFOJ4ntbpCebt92SxKkL0bs9hAFuyUJG0v/3JzGvJ9NNVXdg4MKUuHV1Y3rV7yFArHxBVfuITKQXBa5tzTLSJJwuBOqWXPNJLG+tml57b32201E7k0N/T6e7AXHvJ9NHA73ZI8kkZ1VZ3Xd9/ULNkuR9hNraxuXLrr5+aSrVOq7t4MfP/hUV9vT0y3v6ZZzVxkYhmlq6DcylDx3ilJv913WTBJTk+yVC5GBpOH3iRxSE80kMamYNxG6+75LW1lZH5PPWF331U4SDMNQScJNnGhq7NHVORIdWaB9ToKsRZ8kcQTdrV2cY6hMzO2O0/sEfTcOd9/NnIB2lyfnQH7sNcnJHn71Ipm7Memx1+evFZibwwmJP99QnUlCs+/Gn6LMztUNkYGESxJj8hlL8/fWFn5zc3/uYpKb0ygUiIMDvh9IkvDxSuXO5MdG6766odl3g6vwxsaWo0O4kaEkP7epqrKLe9RUd6+vb/41SWxuKskpjbyfWm9f24ze7muanKjjnERmes1uVze2tpQqlZrkFTLGZV1tj4nQPTa6SKlU3b3NdjmxtfK/bR1w2zqAiymbm0rnJ1HGF13bft9rTTNJMAzTLh26dNHt4b2PE+N/LrWQJOH69qu0dbC4sNVE6GZq7GFnE2hnzd6b969JYmpy/sHdMHvb4PX1zahItu0LubrR1NA/ut1xgzjrkyQa6/uSEsrGxvYzzBe3N8/hEySJQ9/psn6cljhBAlxLzL8exY+9AFpIUF/Of0wSm5vKt6/iTUTuXDuJXz+aScsJ0v6AtJMgrRbIqv96TsLI0JUbV0oun7l53dfc9B0ZuDp9e0yn8NA/QzVot7jU3MCQoGwjQ4lmuwru1b8mCYZhPobkGBlKdI79XFHWLjKQ2NsGjcl3DpBqNUNOb5Run2Xxck/m1kU90UwSpBXng7th42Oz9rbBj+6HV5Z3kBGouO6vQf7fTYRu7pIk7vQJlSSUStUHn3TqHMni4qqNpd/Vy15mxh7v2AaVHpdF7vftQ+/bhzo5RmRn1Wm2kyA11DwnEf9lp6sqwzCaSeLH93pzM2/u8pM+SYKMAkKdMqFMMKktgCShbXLAc5aXT1lriWM/gqICRGB9p1n6AX8gT+/i/jFJMAzT1jpoZCixsfDLTK+pqugMCcw2Ebm7OMeQsxT7SBKk78bPH40lxW3OT6KEArHP73GgydKcHCNamwdycxqnJnWMJ6G5L0aGp65c8jQ3846OLKir7amv6/X2TMlKZ4dY0CdJyEenr5p4mZt5R0Xm19X2NNT1+nimZKRVb1+I2Xy+3evE5Vl0WYm0uKjVxTnG3zdjdXVD2sqOLn/PLqS5SZaf26Q95PZOkmiSLS2t3bMLcXKMdLgTEuSfRS58UNcCMlKrzU3fuTjHLC6scptG2mxyI14wDDMgY0fndLgTypVpax0gt+F1cY7p6x27ef1DZHjuwvzKwsLK1OT85uaWUqly0hiZiru6sbCw0tMtNzfzdrALIe1jSJKYGJ9Tq5nU5EqRgYSkHO12Er8aebDDS4T95KqhVKritgRk8nEAAA0FSURBVEOJ5rga3Kt4socAksQeOAf20tQUwsQJOi1xKpLK3J9Tvwf2OTztC9JOEiYid1urgPU1Hd1klUrV21fxRoZ/rm5sjzGlLMxvuW8fyrXTfP0iljtslJe2iwzEIYF/Wly6OMeIDCRNjTvDb5Nw4L497AE3ngTpr0EW6Pr26+zvjgkz04vklAYZz3twQLF9TkLs6BCuUukeaqy+rpcML0GWZm8b7Pc+g2EYWf/4tcvvHOxCuB/65H5a7OgX//vK7daG+j7Nt9tZB3J3txoemnz5/As32IOJ0D0hrmRrS7kwvyJ5k0BW9+u/mrcB6+8bj40pIn1Ze7rl7K3CbIOrK7sy0mosrrJtMmyt/OO/FCfElZBHSlLFzPRi5Ke8nm45wzBlJdL4WPYlv/fkDMTOHTsZhllZWX/7Kp67h6dKpRZv1yEyPHd1dWNzY2t2Zmlpu/sMwzCZ6TUJcSVxX4qtzH25MS5JkjAylPT1jtneDBAKxGQAbHJOwviC69tX8W7iRNubAU8eRoz/voxCnZMYHpq8Zxdy7bKX+HW8uzjRXZwoeZNgauzh5BjBjcDN2eLJ3gJIEnv7HNir8lEcSiGgr8DEBJpH6PjqSVsHNZuqTU8tpKdWf8+sJS37tN9QkNecnlpNBnfSfHVmerGhrjc3p7Gvd4y06ievdneNpqdWF27flIHMyUyvSU+t5qJGf994emp1TnY91+LS+ALbIKCtdTAzvaavd0yzBQbDMAvzK9uH3uqujpHFhdWhQUV6avWP7+zbd/s3O7PU1TmSnlpdV9MzNblzr+2ZmcWM1Or01CrNLW1tHkhLqSL9V7mlzc4ska2ore7mhuMkr66vbcr6x3OyG6qrumZmlrhQsjC/UlfTk55aJW0dXJhf4RY1OjJ9y8pfZMCescjJrnd0COc6i7a1Dnp7pDx7/PnKJc+dG4gYSDJS2fMf3D+FYp4LKPfsQjQbw3JluCcd7cM/fzToTITkpIjIQOJ472N2Vh33lqjIfCNDSXRkgaPDx5SkisWFnZr39shfPI2+cyvIzNjTyTGC9KMh75oYnzMRumuehIiKzH/6KPLGFR8zY08zY08bC78nDz/V1nRza8ETPQWQJPSEOoBiw0P6HkhOxY9mVPKQBMbkun+wHsBHEIs4OAGdvUAPbvEnYknDw1ODA4qp7VGeujpHudMtpHJj8hlZ/0RvD9t3o693THMwKJKiyLCefb1j3J0v9rFVM9OLPd3y3h45l+fIQgrzWxJiS+Zml2presj4H9zCt7aUsv7xvt4x6j6rSqWqv2+cayxCyk8q5vv72MJ9vWOy/gnN0dO5BR7sk4S4Es1AfLALP66lIUkcqfwJuRnHIR0Csdh/F0CMONIv5D+s7DwkiX/gwVt3FcB4ErvS4AX9BcbH0GYC52Z0C0wqcFFD/2/SMZfc2Nj636u4a5ffcV0DjrlCWP0pEUCSOCU76sRXc3YGYUL3ofTff9Of0iV0d6kXMJblif/mUhXs6hxpbpJxdyKlXsUkBHQKIEnoZMHM/QisrzPDJ+O246f00HuWqi0fVW2xg/niHwQgcPYFkCTO/j4+4i1cXFAPDuDX+fkVGB5WLy/jioa+XzuqF6i+b0M5CJwkASSJk7Q3zlBdVlbU4+Pqnm5c8jgvkaK3RzUxrl5bQ4bg9zVGkuDnhdIQOCoB9N04Kmk91rO6ykxPq+WjaplM3d2FYHF2gkVPt2pAppKPqmZn1GsYuVKP74LOIkKB2MU5RudLmAkBCByjAJLEMeL/ZdXbY+MzSiUep1vgL7sZL+st4OIcIxSI9S6OghCAwBEJIEkcETRWAwEI/KNAYX6LUCA+e6P6/CML3g6BYxdAkjj2XYAKQAACegkoFPM6b5Wp15tRCALHLXCGQzCSxHF/uLB+CEAAAhA46wIJcSVnstcG2W9IEmf984vtgwAEIACB4xOQtg6SJj4uzjEKxfzxVeQQ14wkcYi4WDQEIHCoAqQ3h4tzDHlonz3mXiJPtC+OJMSVUGWoCpPDgGaZv65FuwC1Fn2qQS1kH9XQZy0nZGP/vRr72Fhqp7g4x+zDnFqIzmqQe6Jqv0Rt9ameRJI41bsPlYfA+RVYXl5LiCvR/FNemN9CcWgmABfnmIiPuVSBwvwWqgxVQNY/QRWQ9U9QZagC2tWI+JirWUafalBr0a6G9lo0V6FzY6lqaHep1V4LVQ2GYai1aFeDWos+G0t5aldDey1UNbTXQlVDe2O1dz21sfpUg1qLdjWkrYOy/onl5TPe+RtJgvoMYxICEIAABCAAAR4CSBI8sFAUAhCAAAQgAAFKAEmCAsEkBCAAAQhAAAI8BJAkeGChKAQgAAEIQAAClACSBAWCSQhAAAIQgAAEeAggSfDAQlEIQAACEIAABCgBJAkKBJMQgAAEIAABCPAQQJLggYWiEIAABCAAAQhQAkgSFAgmIQABCEAAAhDgIYAkwQMLRSEAAQhAAAIQoASQJCgQTEIAAhCAAAQgwEMASYIHFopCAAIQgAAEIEAJIElQIJiEAAQgAAEIQICHAJIEDywUhQAEIAABCECAEkCSoEAwCQEIQAACEIAADwEkCR5YKAoBCEAAAhCAACWAJEGBYBICEIAABCAAAR4CSBI8sFAUAhCAAAQgAAFKAEmCAsEkBCAAAQhAAAI8BJAkeGChKAQgAAEIQAAClACSBAWCSQhAAAIQgAAEeAggSfDAQlEIQAACEIAABCgBJAkKBJMQgAAEIAABCPAQQJLggYWiEIAABCAAAQhQAkgSFAgmIQABCEAAAhDgIYAkwQMLRSEAAQhAAAIQoASQJCgQTEIAAhCAAAQgwEMASYIHFopCAAIQgAAEIEAJIElQIJiEAAQgAAEIQICHAJIEDywUhQAEIAABCECAEkCSoEAwCQEIQAACEIAADwEkCR5YKAoBCEAAAhCAACWAJEGBYBICEIAABCAAAR4CSBI8sFAUAhCAAAQgAAFKAEmCAsEkBCAAAQhAAAI8BJAkeGChKAQgAAEIQAAClACSBAWCSQhAAAIQgAAEeAggSfDAQlEIQAACEIAABCgBJAkKBJMQgAAEIAABCPAQQJLggYWiEIAABCAAAQhQAkgSFAgmIQABCEAAAhDgIYAkwQMLRSEAAQhAAAIQoASQJCgQTEIAAhCAAAQgwEMASYIHFopCAAIQgAAEIEAJIElQIJiEAAQgAAEIQICHAJIEDywUhQAEIAABCECAEkCSoEAwCQEIQAACEIAADwEkCR5YKAoBCEAAAhCAACWAJEGBYBICEIAABCAAAR4CSBI8sFAUAhCAAAQgAAFKAEmCAsEkBCAAAQhAAAI8BJAkeGChKAQgAAEIQAAClACSBAWCSQhAAAIQgAAEeAggSfDAQlEIQAACEIAABCgBJAkKBJMQgAAEIAABCPAQQJLggYWiEIAABCAAAQhQAkgSFAgmIQABCEAAAhDgIYAkwQMLRSEAAQhAAAIQoASQJCgQTEIAAhCAAAQgwEMASYIHFopCAAIQgAAEIEAJIElQIJiEAAQgAAEIQICHAJIEDywUhQAEIAABCECAEkCSoEAwCQEIQAACEIAADwEkCR5YKAoBCEAAAhCAACWAJEGBYBICEIAABCAAAR4CSBI8sFAUAhCAAAQgAAFKAEmCAsEkBCAAAQhAAAI8BJAkeGChKAQgAAEIQAAClACSBAWCSQhAAAIQgAAEeAggSfDAQlEIQAACEIAABCgBJAkKBJMQgAAEIAABCPAQQJLggYWiEIAABCAAAQhQAkgSFAgmIQABCEAAAhDgIYAkwQMLRSEAAQhAAAIQoASQJCgQTEIAAhCAAAQgwEMASYIHFopCAAIQgAAEIEAJIElQIJiEAAQgAAEIQICHAJIEDywUhQAEIAABCECAEkCSoEAwCQEIQAACEIAADwEkCR5YKAoBCEAAAhCAACWAJEGBYBICEIAABCAAAR4CSBI8sFAUAhCAAAQgAAFKAEmCAsEkBCAAAQhAAAI8BJAkeGChKAQgAAEIQAAClACSBAWCSQhAAAIQgAAEeAggSfDAQlEIQAACEIAABCgBJAkKBJMQgAAEIAABCPAQQJLggYWiEIAABCAAAQhQAkgSFAgmIQABCEAAAhDgIYAkwQMLRSEAAQhAAAIQoASQJCgQTEIAAhCAAAQgwEMASYIHFopCAAIQgAAEIEAJIElQIJiEAAQgAAEIQICHAJIEDywUhQAEIAABCECAEkCSoEAwCQEIQAACEIAADwEkCR5YKAoBCEAAAhCAACWAJEGBYBICEIAABCAAAR4CSBI8sFAUAhCAAAQgAAFKAEmCAsEkBCAAAQhAAAI8BJAkeGChKAQgAAEIQAAClACSBAWCSQhAAAIQgAAEeAggSfDAQlEIQAACEIAABCgBJAkKBJMQgAAEIAABCPAQQJLggYWiEIAABCAAAQhQAkgSFAgmIQABCEAAAhDgIfB/BjLMo7PKLisAAAAASUVORK5CYII=;fillColor=#d6d5fd;" vertex="1" parent="1">
          <mxGeometry x="1003" y="309" width="707" height="454" as="geometry" />
        </mxCell>
        <mxCell id="PttNPXMBNqtkQihDIfYs-20" value="&lt;div style=&quot;line-height: 20%; vertical-align: top; color: rgb(82, 77, 132); font-size: 14px; font-weight: bold;&quot;&gt;&lt;p style=&quot;line-height: 20%; font-size: 14px;&quot;&gt;&lt;font style=&quot;font-size: 14px;&quot; face=&quot;Helvetica&quot;&gt;Variable变量：&lt;/font&gt;&lt;/p&gt;&lt;p style=&quot;line-height: 20%; font-size: 14px;&quot;&gt;&lt;font style=&quot;font-size: 14px;&quot; face=&quot;aLDYF8aHoTCgzbLq1X3a&quot;&gt;提示词&lt;/font&gt;&lt;/p&gt;&lt;/div&gt;" style="rounded=1;whiteSpace=wrap;html=1;fontFamily=Helvetica;fontSize=14;fontColor=default;labelBackgroundColor=default;strokeColor=#524d84;dashed=1;strokeWidth=1;spacing=0;align=center;arcSize=17;" vertex="1" parent="1">
          <mxGeometry x="526" y="153" width="200" height="64" as="geometry" />
        </mxCell>
        <mxCell id="PttNPXMBNqtkQihDIfYs-21" value="&lt;div style=&quot;line-height: 20%; vertical-align: top; color: rgb(82, 77, 132); font-weight: bold;&quot;&gt;&lt;div style=&quot;line-height: 20%; font-family: &amp;quot;Chiron Sans HK Pro&amp;quot;; text-align: left; vertical-align: middle;&quot;&gt;&lt;p style=&quot;line-height: 20%;&quot;&gt;LLM语言模型：&lt;/p&gt;&lt;p style=&quot;line-height: 20%;&quot;&gt;GPT4o&lt;/p&gt;&lt;/div&gt;&lt;/div&gt;" style="rounded=1;whiteSpace=wrap;html=1;fontFamily=Helvetica;fontSize=14;fontColor=default;labelBackgroundColor=default;strokeColor=#524d84;dashed=1;strokeWidth=1;spacing=0;align=center;arcSize=17;verticalAlign=middle;fillColor=default;" vertex="1" parent="1">
          <mxGeometry x="526" y="247" width="200" height="64" as="geometry" />
        </mxCell>
        <mxCell id="PttNPXMBNqtkQihDIfYs-22" value="&lt;div style=&quot;line-height: 20%; vertical-align: top; color: rgb(82, 77, 132); font-weight: bold;&quot;&gt;&lt;div style=&quot;line-height: 20%; font-family: &amp;quot;Chiron Sans HK Pro&amp;quot;; text-align: left; vertical-align: middle;&quot;&gt;&lt;p style=&quot;line-height: 20%;&quot;&gt;LLM语言模型：&lt;/p&gt;&lt;p style=&quot;line-height: 20%;&quot;&gt;GPT4o&lt;/p&gt;&lt;/div&gt;&lt;/div&gt;" style="rounded=1;whiteSpace=wrap;html=1;fontFamily=Helvetica;fontSize=14;fontColor=default;labelBackgroundColor=default;strokeColor=#524d84;dashed=1;strokeWidth=1;spacing=0;align=center;arcSize=17;verticalAlign=middle;fillColor=default;" vertex="1" parent="1">
          <mxGeometry x="526" y="338" width="200" height="64" as="geometry" />
        </mxCell>
        <mxCell id="PttNPXMBNqtkQihDIfYs-23" value="&lt;div style=&quot;line-height: 90%; font-family: &amp;quot;Chiron Sans HK Pro&amp;quot;; text-align: left; vertical-align: top;&quot;&gt;&lt;p style=&quot;line-height: 90%;&quot;&gt;&lt;font style=&quot;font-size: 16px;&quot;&gt;节点&lt;/font&gt;&lt;/p&gt;&lt;/div&gt;" style="swimlane;whiteSpace=wrap;html=1;fontFamily=Helvetica;fontSize=12;labelBackgroundColor=none;startSize=33;labelBorderColor=none;strokeColor=#9673a6;fillColor=#4c477a;fontColor=#ffffff;rounded=1;arcSize=13;" vertex="1" parent="1">
          <mxGeometry x="-15" y="131" width="207" height="328" as="geometry" />
        </mxCell>
        <mxCell id="PttNPXMBNqtkQihDIfYs-34" value="&lt;font face=&quot;Helvetica&quot; style=&quot;font-size: 14px;&quot;&gt;&lt;ul style=&quot;line-height: 200%;&quot;&gt;&lt;li&gt;&lt;font face=&quot;Helvetica&quot; style=&quot;font-size: 14px;&quot;&gt;Plugin:插件&lt;/font&gt;&lt;/li&gt;&lt;li&gt;&lt;font face=&quot;J9HjFA61Q-ZLZLiDTO3Z&quot; style=&quot;font-size: 14px;&quot;&gt;LLM:大语言模型&lt;/font&gt;&lt;/li&gt;&lt;li&gt;&lt;font face=&quot;J9HjFA61Q-ZLZLiDTO3Z&quot; style=&quot;font-size: 14px;&quot;&gt;Code:代码&lt;/font&gt;&lt;/li&gt;&lt;li&gt;&lt;font face=&quot;J9HjFA61Q-ZLZLiDTO3Z&quot; style=&quot;font-size: 14px;&quot;&gt;Knowledge:知识库&lt;/font&gt;&lt;/li&gt;&lt;li&gt;&lt;font face=&quot;J9HjFA61Q-ZLZLiDTO3Z&quot; style=&quot;font-size: 14px;&quot;&gt;Workflow:工作流&lt;/font&gt;&lt;/li&gt;&lt;li&gt;&lt;font face=&quot;J9HjFA61Q-ZLZLiDTO3Z&quot; style=&quot;font-size: 14px;&quot;&gt;Condition:条件&lt;/font&gt;&lt;/li&gt;&lt;li&gt;&lt;font face=&quot;J9HjFA61Q-ZLZLiDTO3Z&quot; style=&quot;font-size: 14px;&quot;&gt;Message:消息V&lt;/font&gt;&lt;/li&gt;&lt;li&gt;&lt;font face=&quot;J9HjFA61Q-ZLZLiDTO3Z&quot; style=&quot;font-size: 14px;&quot;&gt;ariable:变量&lt;/font&gt;&lt;/li&gt;&lt;li&gt;&lt;span style=&quot;font-size: 14px;&quot;&gt;&lt;font face=&quot;J9HjFA61Q-ZLZLiDTO3Z&quot;&gt;Database:数据库&lt;/font&gt;&lt;/span&gt;&lt;/li&gt;&lt;/ul&gt;&lt;/font&gt;" style="text;strokeColor=none;fillColor=none;html=1;whiteSpace=wrap;verticalAlign=top;overflow=hidden;fontFamily=Helvetica;fontSize=12;fontColor=#524d83;labelBackgroundColor=default;fontStyle=1" vertex="1" parent="PttNPXMBNqtkQihDIfYs-23">
          <mxGeometry x="5" y="38" width="184" height="283" as="geometry" />
        </mxCell>
        <mxCell id="PttNPXMBNqtkQihDIfYs-35" style="edgeStyle=none;shape=connector;curved=0;rounded=1;orthogonalLoop=1;jettySize=auto;html=1;exitX=0.25;exitY=0;exitDx=0;exitDy=0;dashed=1;strokeColor=#524d84;align=center;verticalAlign=middle;fontFamily=Helvetica;fontSize=12;fontColor=default;labelBackgroundColor=default;startSize=8;endArrow=classic;endFill=1;endSize=8;" edge="1" parent="PttNPXMBNqtkQihDIfYs-23" source="PttNPXMBNqtkQihDIfYs-34" target="PttNPXMBNqtkQihDIfYs-34">
          <mxGeometry relative="1" as="geometry" />
        </mxCell>
      </root>
    </mxGraphModel>
  </diagram>
</mxfile>
